<svg xmlns="http://www.w3.org/2000/svg" viewBox="0 0 1075.76 356.91"><defs><style>.cls-1{fill:#fff;}.cls-2,.cls-4{fill:#4e768d;}.cls-3{fill:#39d1b4;}.cls-3,.cls-4,.cls-5,.cls-7,.cls-8,.cls-9{stroke:#fff;stroke-miterlimit:10;}.cls-5{fill:#f65a5b;}.cls-6{fill:#204056;}.cls-7{fill:#e6e6e6;}.cls-8{fill:#52b1db;}.cls-9{fill:#fbbdbd;}</style></defs><title>Asset 1</title><g id="Layer_2" data-name="Layer 2"><g id="Layer_1-2" data-name="Layer 1"><path class="cls-1" d="M414.2,18.73a1.12,1.12,0,0,1-.81-.28,2.59,2.59,0,0,1-.54-.79L407.32,5.72V20.48a4.14,4.14,0,0,1,0,.67,1.16,1.16,0,0,1-.17.42,1,1,0,0,1-.38.35,1.25,1.25,0,0,1-1.13,0,1,1,0,0,1-.39-.35,1.16,1.16,0,0,1-.17-.42,4.14,4.14,0,0,1,0-.67V1.78a2.47,2.47,0,0,1,.08-.65,1.09,1.09,0,0,1,.29-.48,1,1,0,0,1,.38-.26,1.27,1.27,0,0,1,.45-.08,1.41,1.41,0,0,1,.38,0,1.29,1.29,0,0,1,.31.14,1.79,1.79,0,0,1,.62.8l6.71,14.47,6.71-14.47a1.79,1.79,0,0,1,.62-.8,1.29,1.29,0,0,1,.31-.14,1.41,1.41,0,0,1,.38,0,1.26,1.26,0,0,1,.45.08,1,1,0,0,1,.39.26,1.09,1.09,0,0,1,.29.48,2.47,2.47,0,0,1,.08.65v18.7a4.14,4.14,0,0,1,0,.67,1.16,1.16,0,0,1-.17.42,1,1,0,0,1-.39.35,1.25,1.25,0,0,1-1.13,0,1,1,0,0,1-.38-.35,1.16,1.16,0,0,1-.17-.42,4.14,4.14,0,0,1,0-.67V5.72l-5.54,11.93a2.61,2.61,0,0,1-.54.79A1.12,1.12,0,0,1,414.2,18.73Z"/><path class="cls-1" d="M428.94,1.5a1.5,1.5,0,1,1,3,0,1.5,1.5,0,1,1-3,0Zm2.6,19.08a3.49,3.49,0,0,1,0,.6,1.34,1.34,0,0,1-.16.42.88.88,0,0,1-.36.34,1.21,1.21,0,0,1-1.09,0,.87.87,0,0,1-.36-.34,1.32,1.32,0,0,1-.16-.42,3.51,3.51,0,0,1,0-.6V8.43a3.51,3.51,0,0,1,0-.6,1.32,1.32,0,0,1,.16-.42.87.87,0,0,1,.36-.34,1.21,1.21,0,0,1,1.09,0,.88.88,0,0,1,.36.34,1.34,1.34,0,0,1,.16.42,3.49,3.49,0,0,1,0,.6Z"/><path class="cls-1" d="M448.85,20.57a3.61,3.61,0,0,1,0,.61,1.16,1.16,0,0,1-.16.4.87.87,0,0,1-.36.34,1.21,1.21,0,0,1-1.09,0,.87.87,0,0,1-.36-.34,1.14,1.14,0,0,1-.16-.4,3.61,3.61,0,0,1,0-.61V12.81a4.08,4.08,0,0,0-1-3,3.58,3.58,0,0,0-2.67-1,4.47,4.47,0,0,0-1.53.25,3.06,3.06,0,0,0-1.17.75,3.39,3.39,0,0,0-.75,1.24,5.1,5.1,0,0,0-.26,1.72v7.76a3.74,3.74,0,0,1,0,.61,1.16,1.16,0,0,1-.16.4.87.87,0,0,1-.36.34,1.21,1.21,0,0,1-1.09,0,.87.87,0,0,1-.36-.34,1.17,1.17,0,0,1-.16-.4,3.61,3.61,0,0,1,0-.61V8.43a3.49,3.49,0,0,1,0-.6,1.34,1.34,0,0,1,.16-.42.87.87,0,0,1,.36-.34,1.21,1.21,0,0,1,1.09,0,.87.87,0,0,1,.36.34,1.32,1.32,0,0,1,.16.42,3.62,3.62,0,0,1,0,.6V8.7a5.32,5.32,0,0,1,1.87-1.36,5.77,5.77,0,0,1,2.3-.45,6.33,6.33,0,0,1,2.19.36,4.7,4.7,0,0,1,2.83,2.85,7,7,0,0,1,.37,2.34Z"/><path class="cls-1" d="M455.51,15.06a5.78,5.78,0,0,0,1.13,3.8,4,4,0,0,0,3.29,1.35A5.79,5.79,0,0,0,461.6,20a4.19,4.19,0,0,0,1.5-.82,3.32,3.32,0,0,1,.56-.42,1,1,0,0,1,.47-.11.83.83,0,0,1,.35.08,1,1,0,0,1,.29.21,1.22,1.22,0,0,1,.21.31.83.83,0,0,1,.08.36.9.9,0,0,1-.16.5,2.56,2.56,0,0,1-.39.46,4.9,4.9,0,0,1-.5.41l-.49.32a6.26,6.26,0,0,1-1.62.63,8.6,8.6,0,0,1-2.08.23,7.55,7.55,0,0,1-2.68-.45,5.29,5.29,0,0,1-2.05-1.38,6.28,6.28,0,0,1-1.31-2.36,11.23,11.23,0,0,1-.46-3.41,11.29,11.29,0,0,1,.43-3.26A6.77,6.77,0,0,1,455,8.85a5.19,5.19,0,0,1,1.93-1.46,6.22,6.22,0,0,1,2.54-.5,6.31,6.31,0,0,1,2.54.49,5.3,5.3,0,0,1,1.91,1.4,6.33,6.33,0,0,1,1.21,2.17,9.2,9.2,0,0,1,.44,2.83,3.19,3.19,0,0,1,0,.51.87.87,0,0,1-.26.49.82.82,0,0,1-.46.25,3.34,3.34,0,0,1-.51,0Zm7.88-1.66c0-.26,0-.5,0-.71s0-.41-.08-.59a5.53,5.53,0,0,0-.14-.54q-.08-.27-.2-.57a3.47,3.47,0,0,0-1.34-1.62,4.12,4.12,0,0,0-4.28,0A3.42,3.42,0,0,0,456,11q-.12.3-.2.57a5.27,5.27,0,0,0-.14.54,5.66,5.66,0,0,0-.08.59q0,.32,0,.71Z"/><path class="cls-1" d="M469.59,20.69a2.22,2.22,0,0,1-.52-.47.88.88,0,0,1-.2-.56.93.93,0,0,1,.09-.39,1.24,1.24,0,0,1,.26-.36.89.89,0,0,1,.63-.23,1.78,1.78,0,0,1,1,.42,5.9,5.9,0,0,0,1.74.85,7.74,7.74,0,0,0,2.17.27,5.55,5.55,0,0,0,2.93-.64,2.16,2.16,0,0,0,1-2,1.91,1.91,0,0,0-.6-1.52,3.31,3.31,0,0,0-1.88-.64l-2.45-.23a5.77,5.77,0,0,1-3.31-1.17,3.51,3.51,0,0,1-1.13-2.82,4,4,0,0,1,.41-1.82A4,4,0,0,1,470.89,8a5.22,5.22,0,0,1,1.73-.87,7.61,7.61,0,0,1,2.2-.3,9.49,9.49,0,0,1,2.26.25,9,9,0,0,1,1.89.69,2.88,2.88,0,0,1,.47.28,1.56,1.56,0,0,1,.27.26.87.87,0,0,1,.14.27,1.22,1.22,0,0,1,0,.29.82.82,0,0,1-.07.3,1,1,0,0,1-.17.29.94.94,0,0,1-.69.32,1.1,1.1,0,0,1-.37-.07,3.25,3.25,0,0,1-.46-.22,6.84,6.84,0,0,0-1.56-.6,7.28,7.28,0,0,0-1.77-.2,4.1,4.1,0,0,0-2.46.63,2.11,2.11,0,0,0-.86,1.81,1.83,1.83,0,0,0,.63,1.52,3.72,3.72,0,0,0,2,.63l2.39.23a8.72,8.72,0,0,1,1.79.34,4,4,0,0,1,1.38.72,3.14,3.14,0,0,1,.89,1.19,4.45,4.45,0,0,1,.32,1.78,4.11,4.11,0,0,1-.44,1.92,4.05,4.05,0,0,1-1.24,1.43,5.81,5.81,0,0,1-1.92.88,9.44,9.44,0,0,1-2.46.3,10.77,10.77,0,0,1-2.95-.36A7.44,7.44,0,0,1,469.59,20.69Z"/><path class="cls-1" d="M490.11,20.42a6.31,6.31,0,0,1-.3.82,1.36,1.36,0,0,1-.38.51,1.24,1.24,0,0,1-.85.3,1.26,1.26,0,0,1-.86-.3,1.36,1.36,0,0,1-.38-.51,6.31,6.31,0,0,1-.3-.82l-3.5-11.75a3.56,3.56,0,0,1-.13-.58,1.14,1.14,0,0,1,0-.43,1,1,0,0,1,.38-.51,1.07,1.07,0,0,1,.63-.2,1,1,0,0,1,.7.3,1.09,1.09,0,0,1,.21.33,4.06,4.06,0,0,1,.18.52l3.1,10.81,3.11-10.39a7.15,7.15,0,0,1,.29-.8,1.32,1.32,0,0,1,.37-.5,1.3,1.3,0,0,1,1.63,0,1.32,1.32,0,0,1,.37.5,7.17,7.17,0,0,1,.29.8l3.11,10.39,3.1-10.81a4.23,4.23,0,0,1,.18-.52,1.07,1.07,0,0,1,.21-.33,1,1,0,0,1,.69-.3,1.07,1.07,0,0,1,.63.2,1,1,0,0,1,.38.51,1.12,1.12,0,0,1,0,.43,3.44,3.44,0,0,1-.13.58l-3.5,11.75a6.29,6.29,0,0,1-.3.82,1.37,1.37,0,0,1-.38.51,1.26,1.26,0,0,1-.86.3,1.24,1.24,0,0,1-.85-.3,1.35,1.35,0,0,1-.38-.51,6.15,6.15,0,0,1-.3-.82l-3.13-10.25Z"/><path class="cls-1" d="M507.92,15.06a5.78,5.78,0,0,0,1.13,3.8,4,4,0,0,0,3.29,1.35A5.79,5.79,0,0,0,514,20a4.19,4.19,0,0,0,1.5-.82,3.32,3.32,0,0,1,.56-.42,1,1,0,0,1,.47-.11.83.83,0,0,1,.35.08,1,1,0,0,1,.29.21,1.22,1.22,0,0,1,.21.31.83.83,0,0,1,.08.36.9.9,0,0,1-.16.5,2.56,2.56,0,0,1-.39.46,4.9,4.9,0,0,1-.5.41l-.49.32a6.26,6.26,0,0,1-1.62.63,8.6,8.6,0,0,1-2.08.23,7.55,7.55,0,0,1-2.68-.45,5.29,5.29,0,0,1-2.05-1.38,6.28,6.28,0,0,1-1.31-2.36,11.23,11.23,0,0,1-.46-3.41,11.29,11.29,0,0,1,.43-3.26,6.77,6.77,0,0,1,1.23-2.39,5.19,5.19,0,0,1,1.93-1.46,6.22,6.22,0,0,1,2.54-.5,6.31,6.31,0,0,1,2.54.49,5.3,5.3,0,0,1,1.91,1.4,6.33,6.33,0,0,1,1.21,2.17,9.2,9.2,0,0,1,.44,2.83,3.19,3.19,0,0,1,0,.51.87.87,0,0,1-.26.49.82.82,0,0,1-.46.25,3.34,3.34,0,0,1-.51,0Zm7.88-1.66c0-.26,0-.5,0-.71s0-.41-.08-.59a5.53,5.53,0,0,0-.14-.54q-.08-.27-.2-.57A3.47,3.47,0,0,0,514,9.36a4.12,4.12,0,0,0-4.28,0A3.42,3.42,0,0,0,508.39,11q-.12.3-.2.57a5.27,5.27,0,0,0-.14.54,5.66,5.66,0,0,0-.08.59q0,.32,0,.71Z"/><path class="cls-1" d="M523.9,15.06a5.78,5.78,0,0,0,1.13,3.8,4,4,0,0,0,3.29,1.35A5.79,5.79,0,0,0,530,20a4.19,4.19,0,0,0,1.5-.82,3.32,3.32,0,0,1,.56-.42,1,1,0,0,1,.47-.11.83.83,0,0,1,.35.08,1,1,0,0,1,.29.21,1.22,1.22,0,0,1,.21.31.83.83,0,0,1,.08.36.9.9,0,0,1-.16.5,2.56,2.56,0,0,1-.39.46,4.9,4.9,0,0,1-.5.41l-.49.32a6.26,6.26,0,0,1-1.62.63,8.6,8.6,0,0,1-2.08.23,7.55,7.55,0,0,1-2.68-.45,5.29,5.29,0,0,1-2.05-1.38,6.28,6.28,0,0,1-1.31-2.36,11.23,11.23,0,0,1-.46-3.41,11.29,11.29,0,0,1,.43-3.26,6.77,6.77,0,0,1,1.23-2.39,5.19,5.19,0,0,1,1.93-1.46,6.22,6.22,0,0,1,2.54-.5,6.31,6.31,0,0,1,2.54.49,5.3,5.3,0,0,1,1.91,1.4,6.33,6.33,0,0,1,1.21,2.17,9.2,9.2,0,0,1,.44,2.83,3.19,3.19,0,0,1,0,.51.87.87,0,0,1-.26.49.82.82,0,0,1-.46.25,3.34,3.34,0,0,1-.51,0Zm7.88-1.66c0-.26,0-.5,0-.71s0-.41-.08-.59a5.53,5.53,0,0,0-.14-.54q-.08-.27-.2-.57A3.47,3.47,0,0,0,530,9.36a4.12,4.12,0,0,0-4.28,0A3.42,3.42,0,0,0,524.36,11q-.12.3-.2.57a5.27,5.27,0,0,0-.14.54,5.66,5.66,0,0,0-.08.59q0,.32,0,.71Z"/><path class="cls-1" d="M550.39,14.5q0,.89-.08,1.78A10.84,10.84,0,0,1,550,18a7.52,7.52,0,0,1-.57,1.54,4.91,4.91,0,0,1-.92,1.28,4.24,4.24,0,0,1-1.53.94,5.89,5.89,0,0,1-2.1.36,8,8,0,0,1-1.17-.08,4.75,4.75,0,0,1-1.07-.29,4.31,4.31,0,0,1-1-.58,5.81,5.81,0,0,1-1-.94v7a3.62,3.62,0,0,1,0,.6,1.32,1.32,0,0,1-.16.42.88.88,0,0,1-.36.34,1.21,1.21,0,0,1-1.09,0,.88.88,0,0,1-.36-.34,1.34,1.34,0,0,1-.16-.42,3.49,3.49,0,0,1,0-.6V8.43a3.49,3.49,0,0,1,0-.6,1.34,1.34,0,0,1,.16-.42.87.87,0,0,1,.36-.34,1.21,1.21,0,0,1,1.09,0,.87.87,0,0,1,.36.34,1.32,1.32,0,0,1,.16.42,3.62,3.62,0,0,1,0,.6v.42a6,6,0,0,1,.94-1,4.47,4.47,0,0,1,1-.6A4.3,4.3,0,0,1,543.74,7a8.12,8.12,0,0,1,1.18-.08,5.89,5.89,0,0,1,2.1.36,4.24,4.24,0,0,1,1.53.94,5.21,5.21,0,0,1,.92,1.29A7.34,7.34,0,0,1,550,11a10.87,10.87,0,0,1,.28,1.71Q550.39,13.61,550.39,14.5Zm-9.67,0a16.78,16.78,0,0,0,.13,2.11,5.55,5.55,0,0,0,.52,1.81,3.17,3.17,0,0,0,1.13,1.26,4.26,4.26,0,0,0,3.91,0,3.17,3.17,0,0,0,1.13-1.26,5.58,5.58,0,0,0,.52-1.81,17.41,17.41,0,0,0,0-4.21,5.58,5.58,0,0,0-.52-1.8,3.17,3.17,0,0,0-1.12-1.26,4.26,4.26,0,0,0-3.91,0,3.17,3.17,0,0,0-1.12,1.26,5.56,5.56,0,0,0-.52,1.8A16.8,16.8,0,0,0,540.72,14.5Z"/><path class="cls-1" d="M556.41,15.06a5.78,5.78,0,0,0,1.12,3.8,4,4,0,0,0,3.29,1.35,5.79,5.79,0,0,0,1.68-.25,4.19,4.19,0,0,0,1.5-.82,3.32,3.32,0,0,1,.56-.42,1,1,0,0,1,.47-.11.83.83,0,0,1,.35.08,1,1,0,0,1,.29.21,1.22,1.22,0,0,1,.21.31.83.83,0,0,1,.08.36.9.9,0,0,1-.16.5,2.56,2.56,0,0,1-.39.46,4.9,4.9,0,0,1-.5.41l-.49.32a6.26,6.26,0,0,1-1.62.63,8.6,8.6,0,0,1-2.08.23,7.55,7.55,0,0,1-2.68-.45A5.29,5.29,0,0,1,556,20.28a6.28,6.28,0,0,1-1.31-2.36,11.23,11.23,0,0,1-.46-3.41,11.29,11.29,0,0,1,.43-3.26,6.77,6.77,0,0,1,1.23-2.39,5.19,5.19,0,0,1,1.93-1.46,6.22,6.22,0,0,1,2.54-.5,6.31,6.31,0,0,1,2.54.49,5.3,5.3,0,0,1,1.91,1.4A6.33,6.33,0,0,1,566,10.95a9.2,9.2,0,0,1,.44,2.83,3.19,3.19,0,0,1,0,.51.87.87,0,0,1-.26.49.82.82,0,0,1-.46.25,3.34,3.34,0,0,1-.51,0Zm7.88-1.66c0-.26,0-.5,0-.71s0-.41-.08-.59a5.53,5.53,0,0,0-.14-.54q-.08-.27-.2-.57a3.47,3.47,0,0,0-1.34-1.62,4.12,4.12,0,0,0-4.28,0A3.42,3.42,0,0,0,556.88,11q-.12.3-.2.57a5.27,5.27,0,0,0-.14.54,5.66,5.66,0,0,0-.08.59q0,.32,0,.71Z"/><path class="cls-1" d="M573.24,8.85A4.09,4.09,0,0,1,574,8a4.65,4.65,0,0,1,1-.62,5.37,5.37,0,0,1,2.33-.53,5.69,5.69,0,0,1,1.43.17A4.49,4.49,0,0,1,580,7.6a2.57,2.57,0,0,1,.59.48.93.93,0,0,1,.24.63,1.07,1.07,0,0,1-.09.42,1.08,1.08,0,0,1-.23.35,1,1,0,0,1-.75.32,1.09,1.09,0,0,1-.42-.09,5.54,5.54,0,0,1-.63-.33A3.74,3.74,0,0,0,577.8,9a3.43,3.43,0,0,0-1-.14,3.58,3.58,0,0,0-1.5.3,3.34,3.34,0,0,0-1.13.83,3.66,3.66,0,0,0-.72,1.26,5,5,0,0,0-.25,1.61v7.72a3.62,3.62,0,0,1,0,.6,1.32,1.32,0,0,1-.16.42.87.87,0,0,1-.36.34,1.21,1.21,0,0,1-1.09,0,.87.87,0,0,1-.36-.34,1.34,1.34,0,0,1-.16-.42,3.49,3.49,0,0,1,0-.6V8.41a3.5,3.5,0,0,1,0-.6,1.35,1.35,0,0,1,.16-.42.88.88,0,0,1,.36-.34,1.22,1.22,0,0,1,1.09,0,.88.88,0,0,1,.36.34,1.33,1.33,0,0,1,.16.42,3.63,3.63,0,0,1,0,.6Z"/><path class="cls-1" d="M591.68,1.83a4.25,4.25,0,0,1,0-.56A.91.91,0,0,1,592,.74a.91.91,0,0,1,.53-.28,4.25,4.25,0,0,1,.56,0H600a7.73,7.73,0,0,1,2.58.42,6,6,0,0,1,2,1.19,5.25,5.25,0,0,1,1.32,1.88,6.37,6.37,0,0,1,.47,2.5A6.42,6.42,0,0,1,606,8.55a5.29,5.29,0,0,1-1,1.7,5.44,5.44,0,0,1-1.49,1.22,6.79,6.79,0,0,1-1.9.71L606.12,20a2.93,2.93,0,0,1,.28.59,1.55,1.55,0,0,1,.07.45,1,1,0,0,1-.59.89,1.17,1.17,0,0,1-.59.17.91.91,0,0,1-.7-.29,3.5,3.5,0,0,1-.48-.67l-5-8.71H594v8.09a4.14,4.14,0,0,1,0,.67,1.16,1.16,0,0,1-.17.42,1,1,0,0,1-.38.35,1.25,1.25,0,0,1-1.13,0,1,1,0,0,1-.39-.35,1.16,1.16,0,0,1-.17-.42,4.14,4.14,0,0,1,0-.67Zm2.33.65v7.88h5.74a5.9,5.9,0,0,0,1.73-.24,3.68,3.68,0,0,0,1.36-.73,3.33,3.33,0,0,0,.88-1.23A4.33,4.33,0,0,0,604,6.43a4.33,4.33,0,0,0-.32-1.72,3.4,3.4,0,0,0-.88-1.24,3.72,3.72,0,0,0-1.36-.75,5.74,5.74,0,0,0-1.73-.25Z"/><path class="cls-1" d="M611,8.43a3.62,3.62,0,0,1,0-.61,1.16,1.16,0,0,1,.16-.4.87.87,0,0,1,.36-.34,1.21,1.21,0,0,1,1.09,0,.87.87,0,0,1,.36.34,1.16,1.16,0,0,1,.16.4,3.62,3.62,0,0,1,0,.61v7.76a4.08,4.08,0,0,0,1,3,3.58,3.58,0,0,0,2.67,1,4.47,4.47,0,0,0,1.53-.25,3,3,0,0,0,1.17-.75,3.38,3.38,0,0,0,.75-1.24,5.1,5.1,0,0,0,.26-1.72V8.43a3.62,3.62,0,0,1,0-.61,1.14,1.14,0,0,1,.16-.4.87.87,0,0,1,.36-.34,1.21,1.21,0,0,1,1.09,0,.88.88,0,0,1,.36.34,1.18,1.18,0,0,1,.16.4,3.62,3.62,0,0,1,0,.61V20.57a3.49,3.49,0,0,1,0,.6,1.34,1.34,0,0,1-.16.42.88.88,0,0,1-.36.34,1.21,1.21,0,0,1-1.09,0,.87.87,0,0,1-.36-.34,1.29,1.29,0,0,1-.16-.42,3.49,3.49,0,0,1,0-.6V20.3a5.34,5.34,0,0,1-1.87,1.36,5.77,5.77,0,0,1-2.3.45,6.33,6.33,0,0,1-2.19-.36,4.71,4.71,0,0,1-2.83-2.85,7,7,0,0,1-.37-2.34Z"/><path class="cls-1" d="M630.34,17.87a2.4,2.4,0,0,0,.48,1.59,1.83,1.83,0,0,0,1.49.57,3.2,3.2,0,0,1,.6,0,1.18,1.18,0,0,1,.38.14.93.93,0,0,1,0,1.54,1.18,1.18,0,0,1-.38.14,3.21,3.21,0,0,1-.6,0h-.39a4.08,4.08,0,0,1-1.65-.31,3.31,3.31,0,0,1-1.18-.85,3.55,3.55,0,0,1-.71-1.27,5,5,0,0,1-.23-1.56V1.78a3.49,3.49,0,0,1,0-.6,1.29,1.29,0,0,1,.16-.42.87.87,0,0,1,.36-.34,1.21,1.21,0,0,1,1.09,0,.87.87,0,0,1,.36.34,1.34,1.34,0,0,1,.16.42,3.49,3.49,0,0,1,0,.6Z"/><path class="cls-1" d="M638.18,15.06a5.78,5.78,0,0,0,1.13,3.8,4,4,0,0,0,3.29,1.35,5.79,5.79,0,0,0,1.68-.25,4.19,4.19,0,0,0,1.5-.82,3.32,3.32,0,0,1,.56-.42,1,1,0,0,1,.47-.11.83.83,0,0,1,.35.08,1,1,0,0,1,.29.21,1.22,1.22,0,0,1,.21.31.83.83,0,0,1,.08.36.9.9,0,0,1-.16.5,2.56,2.56,0,0,1-.39.46,4.9,4.9,0,0,1-.5.41l-.49.32a6.26,6.26,0,0,1-1.62.63,8.6,8.6,0,0,1-2.08.23,7.55,7.55,0,0,1-2.68-.45,5.29,5.29,0,0,1-2.05-1.38,6.28,6.28,0,0,1-1.31-2.36A11.23,11.23,0,0,1,636,14.5a11.29,11.29,0,0,1,.43-3.26,6.77,6.77,0,0,1,1.23-2.39,5.19,5.19,0,0,1,1.93-1.46,6.22,6.22,0,0,1,2.54-.5,6.31,6.31,0,0,1,2.54.49,5.3,5.3,0,0,1,1.91,1.4,6.33,6.33,0,0,1,1.21,2.17,9.2,9.2,0,0,1,.44,2.83,3.19,3.19,0,0,1,0,.51.87.87,0,0,1-.26.49.82.82,0,0,1-.46.25,3.34,3.34,0,0,1-.51,0Zm7.88-1.66c0-.26,0-.5,0-.71s0-.41-.08-.59a5.53,5.53,0,0,0-.14-.54q-.08-.27-.2-.57a3.47,3.47,0,0,0-1.34-1.62,4.12,4.12,0,0,0-4.28,0A3.42,3.42,0,0,0,638.65,11q-.12.3-.2.57a5.27,5.27,0,0,0-.14.54,5.66,5.66,0,0,0-.08.59q0,.32,0,.71Z"/><path class="cls-1" d="M652.26,20.69a2.22,2.22,0,0,1-.52-.47.88.88,0,0,1-.2-.56.93.93,0,0,1,.09-.39,1.24,1.24,0,0,1,.26-.36.89.89,0,0,1,.63-.23,1.78,1.78,0,0,1,1,.42,5.9,5.9,0,0,0,1.74.85,7.74,7.74,0,0,0,2.17.27,5.55,5.55,0,0,0,2.93-.64,2.16,2.16,0,0,0,1-2,1.91,1.91,0,0,0-.6-1.52,3.31,3.31,0,0,0-1.88-.64l-2.45-.23a5.77,5.77,0,0,1-3.31-1.17A3.51,3.51,0,0,1,652,11.24a4,4,0,0,1,.41-1.82A4,4,0,0,1,653.55,8a5.22,5.22,0,0,1,1.73-.87,7.61,7.61,0,0,1,2.2-.3,9.49,9.49,0,0,1,2.26.25,9,9,0,0,1,1.89.69,2.88,2.88,0,0,1,.47.28,1.56,1.56,0,0,1,.27.26.87.87,0,0,1,.14.27,1.22,1.22,0,0,1,0,.29.82.82,0,0,1-.07.3,1,1,0,0,1-.17.29.94.94,0,0,1-.69.32,1.1,1.1,0,0,1-.37-.07,3.25,3.25,0,0,1-.46-.22,6.84,6.84,0,0,0-1.56-.6,7.28,7.28,0,0,0-1.77-.2,4.1,4.1,0,0,0-2.46.63,2.11,2.11,0,0,0-.86,1.81,1.83,1.83,0,0,0,.63,1.52,3.72,3.72,0,0,0,2,.63l2.39.23a8.72,8.72,0,0,1,1.79.34,4,4,0,0,1,1.38.72,3.14,3.14,0,0,1,.89,1.19,4.45,4.45,0,0,1,.32,1.78,4.11,4.11,0,0,1-.44,1.92,4.05,4.05,0,0,1-1.24,1.43,5.81,5.81,0,0,1-1.92.88,9.44,9.44,0,0,1-2.46.3,10.77,10.77,0,0,1-2.95-.36A7.44,7.44,0,0,1,652.26,20.69Z"/><path class="cls-1" d="M0,330.47l5.11-13.08H6.19l4.92,13.08H9.95L8.28,326H2.86l-1.74,4.44Zm3.29-5.26H7.88q-2-5.68-2.24-6.68-.11.39-.69,2.06t-1.12,3.15Z"/><path class="cls-1" d="M20.78,330.69a6.47,6.47,0,0,1-1.75-.23,4.57,4.57,0,0,1-1.29-.54l.16-.91a6,6,0,0,0,2.78.76q2.38,0,2.47-1.77a1.47,1.47,0,0,0-.48-1.16,5.83,5.83,0,0,0-1.92-.88l-.83-.29q-2.26-.69-2.28-2.44a2.32,2.32,0,0,1,.89-1.79,3.55,3.55,0,0,1,2.41-.78,6.91,6.91,0,0,1,2.86.6l-.37.81a7.17,7.17,0,0,0-2.51-.51,2.54,2.54,0,0,0-1.6.46,1.48,1.48,0,0,0-.58,1.23,1.28,1.28,0,0,0,.38,1,4,4,0,0,0,1.52.66l.45.16.36.13a4.94,4.94,0,0,1,2.12,1.1,2.43,2.43,0,0,1,.6,1.74,2.38,2.38,0,0,1-.94,2A3.94,3.94,0,0,1,20.78,330.69Z"/><path class="cls-1" d="M29.56,330.68a3.28,3.28,0,0,1-2.18-.69,2.41,2.41,0,0,1-.82-2,2.57,2.57,0,0,1,.33-1.31,2.46,2.46,0,0,1,.94-.91,5.61,5.61,0,0,1,1.42-.54,11.56,11.56,0,0,1,1.85-.27l1.67-.11v-1.07a2.41,2.41,0,0,0-.51-1.67,2.09,2.09,0,0,0-1.62-.56,5.84,5.84,0,0,0-2.86.73l-.16-.38c-.08-.2-.15-.35-.18-.45a5.08,5.08,0,0,1,1.42-.59,6.59,6.59,0,0,1,1.72-.24,3.47,3.47,0,0,1,2.49.74,3.64,3.64,0,0,1,.76,2.63v6.43H33c0-.13-.07-.4-.13-.8s-.08-.6-.08-.62A3.68,3.68,0,0,1,29.56,330.68Zm0-.87a3.21,3.21,0,0,0,2-.66,3.1,3.1,0,0,0,1.15-1.84v-1.64l-1.27.11a7.48,7.48,0,0,0-3,.7,1.72,1.72,0,0,0-.83,1.58,1.61,1.61,0,0,0,.53,1.32A2.14,2.14,0,0,0,29.59,329.81Z"/><path class="cls-1" d="M37.77,330.47v-8.83H36.19l.07-.68,1.51-.12v-.36a4.55,4.55,0,0,1,.66-2.76,2.41,2.41,0,0,1,2-.86,11.26,11.26,0,0,1,1.34.13l-.08.72q-.84-.1-1.14-.1a1.43,1.43,0,0,0-1.37.64,5,5,0,0,0-.36,2.27v.31h2.35v.8H38.86v8.83Z"/><path class="cls-1" d="M47.26,330.68a4,4,0,0,1-3.17-1.34,5.29,5.29,0,0,1-1.17-3.62,5.53,5.53,0,0,1,1.15-3.61,3.78,3.78,0,0,1,3-1.45,3.39,3.39,0,0,1,2.72,1.21,4.86,4.86,0,0,1,1,3.25c0,.05,0,.16,0,.32s0,.28,0,.34H44.07a4.61,4.61,0,0,0,.9,2.94,2.84,2.84,0,0,0,2.32,1.09,5.44,5.44,0,0,0,1.63-.22,8.58,8.58,0,0,0,1.45-.62l.18.82A6.17,6.17,0,0,1,47.26,330.68Zm-3.15-5.77H49.6a3.84,3.84,0,0,0-.69-2.47,2.32,2.32,0,0,0-1.91-.86,2.45,2.45,0,0,0-2,.91A4.32,4.32,0,0,0,44.12,324.91Z"/><path class="cls-1" d="M61.19,330.67a2.46,2.46,0,0,1-1.78-.55,2.41,2.41,0,0,1-.56-1.79v-6.7H57.49l.08-.66,1.3-.12.29-2.21.76-.05v2.24h2.81v.8H59.93v6.47a2,2,0,0,0,.33,1.37,1.6,1.6,0,0,0,1.18.35,5.76,5.76,0,0,0,1.35-.2l0,.84A9.1,9.1,0,0,1,61.19,330.67Z"/><path class="cls-1" d="M65.25,318.87v-1.48h1.09v1.48Zm0,11.6v-9.63h1.1v9.63Z"/><path class="cls-1" d="M72.2,330.67a2.46,2.46,0,0,1-1.78-.55,2.41,2.41,0,0,1-.56-1.79V317.09l1.07-.09v11.27a1.76,1.76,0,0,0,.32,1.21,1.29,1.29,0,0,0,1,.33,5.51,5.51,0,0,0,1.32-.2l0,.84A6.15,6.15,0,0,1,72.2,330.67Z"/><path class="cls-1" d="M79.5,330.68a4,4,0,0,1-3.17-1.34,5.29,5.29,0,0,1-1.17-3.62,5.53,5.53,0,0,1,1.15-3.61,3.78,3.78,0,0,1,3-1.45A3.39,3.39,0,0,1,82,321.88a4.86,4.86,0,0,1,1,3.25c0,.05,0,.16,0,.32s0,.28,0,.34H76.31a4.61,4.61,0,0,0,.9,2.94,2.84,2.84,0,0,0,2.32,1.09,5.44,5.44,0,0,0,1.63-.22,8.58,8.58,0,0,0,1.45-.62l.18.82A6.17,6.17,0,0,1,79.5,330.68Zm-3.15-5.77h5.48a3.84,3.84,0,0,0-.69-2.47,2.32,2.32,0,0,0-1.91-.86,2.45,2.45,0,0,0-2,.91A4.32,4.32,0,0,0,76.35,324.91Z"/><path class="cls-1" d="M92.3,330.47l-2.69-9.63h1.14L93,329.44q2.4-7.72,2.68-8.61H97q2.63,8.58,2.65,8.58l2.13-8.58h1.13l-2.65,9.63H99s-.43-1.34-1.24-4.05-1.28-4.3-1.41-4.77q-.11.47-.8,2.68t-1.34,4.18q-.64,2-.65,2Z"/><path class="cls-1" d="M105.23,318.87v-1.48h1.09v1.48Zm0,11.6v-9.63h1.1v9.63Z"/><path class="cls-1" d="M112.17,330.67a2.46,2.46,0,0,1-1.78-.55,2.41,2.41,0,0,1-.56-1.79V317.09l1.07-.09v11.27a1.76,1.76,0,0,0,.32,1.21,1.29,1.29,0,0,0,1,.33,5.51,5.51,0,0,0,1.32-.2l0,.84A6.15,6.15,0,0,1,112.17,330.67Z"/><path class="cls-1" d="M118,330.67a2.46,2.46,0,0,1-1.78-.55,2.41,2.41,0,0,1-.56-1.79V317.09l1.07-.09v11.27a1.76,1.76,0,0,0,.32,1.21,1.29,1.29,0,0,0,1,.33,5.51,5.51,0,0,0,1.32-.2l0,.84A6.15,6.15,0,0,1,118,330.67Z"/><path class="cls-1" d="M126.3,318.87v-1.48h1.09v1.48Zm0,11.6v-9.63h1.1v9.63Z"/><path class="cls-1" d="M130.82,330.47v-9.63h.95l.15,1.49a3.62,3.62,0,0,1,1.39-1.22,4.12,4.12,0,0,1,1.89-.44,3,3,0,0,1,2.44.91,4.44,4.44,0,0,1,.78,2.92v6h-1.1V324a2.9,2.9,0,0,0-.54-1.85,2.1,2.1,0,0,0-1.64-.56,3.34,3.34,0,0,0-2.14.66,2.82,2.82,0,0,0-1,1.71q0,.41,0,.86v5.65Z"/><path class="cls-1" d="M142.27,330.47v-8.83h-1.58l.07-.68,1.51-.12v-.36a4.55,4.55,0,0,1,.66-2.76,2.41,2.41,0,0,1,2-.86,11.26,11.26,0,0,1,1.34.13l-.08.72q-.84-.1-1.14-.1a1.43,1.43,0,0,0-1.37.64,5,5,0,0,0-.36,2.27v.31h2.35v.8h-2.35v8.83Z"/><path class="cls-1" d="M151.77,330.68a4.09,4.09,0,0,1-2.31-.66,4.21,4.21,0,0,1-1.52-1.79,6,6,0,0,1-.52-2.55,6.33,6.33,0,0,1,.3-2,4.78,4.78,0,0,1,.87-1.59A3.9,3.9,0,0,1,150,321a4.39,4.39,0,0,1,1.85-.38,4,4,0,0,1,3.84,2.45,6.25,6.25,0,0,1,.5,2.55,6.16,6.16,0,0,1-.51,2.57,4.12,4.12,0,0,1-1.52,1.79A4.22,4.22,0,0,1,151.77,330.68Zm.08-.87a2.83,2.83,0,0,0,1.78-.56,3.16,3.16,0,0,0,1.05-1.47,6.17,6.17,0,0,0,.33-2.1,5.14,5.14,0,0,0-.79-3,2.74,2.74,0,0,0-2.41-1.13,2.87,2.87,0,0,0-1.8.57,3.25,3.25,0,0,0-1.09,1.48,6,6,0,0,0-.34,2.11,4.89,4.89,0,0,0,.84,3A2.81,2.81,0,0,0,151.85,329.81Z"/><path class="cls-1" d="M159.06,330.47q0-8.48,0-9.63h.9l.07,1.9a4.46,4.46,0,0,1,1.32-1.41,2.92,2.92,0,0,1,1.67-.54,5.27,5.27,0,0,1,.77.06l-.08.9a4.06,4.06,0,0,0-.67-.05,2.6,2.6,0,0,0-2.05,1,3.38,3.38,0,0,0-.83,2.28v5.53Z"/><path class="cls-1" d="M166.07,330.47q0-8.74,0-9.63H167l.14,1.48a3.23,3.23,0,0,1,1.26-1.19,3.61,3.61,0,0,1,1.78-.47,2.68,2.68,0,0,1,2.9,1.82,3.46,3.46,0,0,1,3.24-1.82,2.84,2.84,0,0,1,2.32.9,4.15,4.15,0,0,1,.74,2.69v6.22H178.3v-4.71c0-.45,0-.82,0-1.12s0-.62-.08-1a3.46,3.46,0,0,0-.2-.86,2.94,2.94,0,0,0-.36-.63,1.3,1.3,0,0,0-.56-.44,2.12,2.12,0,0,0-.81-.14,2.8,2.8,0,0,0-1.88.65,3.44,3.44,0,0,0-1.07,1.84q0,.9,0,1.39v5h-1.08v-4.9q0-.75,0-1.3a6.61,6.61,0,0,0-.18-1.08,2.73,2.73,0,0,0-.36-.86,1.65,1.65,0,0,0-.6-.54,1.85,1.85,0,0,0-.89-.2,3.12,3.12,0,0,0-2,.64,2.92,2.92,0,0,0-1,1.74c0,.24,0,.58,0,1v5.47Z"/><path class="cls-1" d="M191.33,330.68A4.09,4.09,0,0,1,189,330a4.21,4.21,0,0,1-1.52-1.79,6,6,0,0,1-.52-2.55,6.33,6.33,0,0,1,.3-2,4.78,4.78,0,0,1,.87-1.59,3.9,3.9,0,0,1,1.4-1.05,4.39,4.39,0,0,1,1.85-.38,4,4,0,0,1,3.84,2.45,6.25,6.25,0,0,1,.5,2.55,6.16,6.16,0,0,1-.51,2.57A4.12,4.12,0,0,1,193.7,330,4.22,4.22,0,0,1,191.33,330.68Zm.08-.87a2.83,2.83,0,0,0,1.78-.56,3.16,3.16,0,0,0,1.05-1.47,6.17,6.17,0,0,0,.33-2.1,5.14,5.14,0,0,0-.79-3,2.74,2.74,0,0,0-2.41-1.13,2.87,2.87,0,0,0-1.8.57,3.25,3.25,0,0,0-1.09,1.48,6,6,0,0,0-.34,2.11,4.89,4.89,0,0,0,.84,3A2.81,2.81,0,0,0,191.41,329.81Z"/><path class="cls-1" d="M199.2,330.47v-8.83h-1.58l.07-.68,1.51-.12v-.36a4.55,4.55,0,0,1,.66-2.76,2.41,2.41,0,0,1,2-.86,11.26,11.26,0,0,1,1.34.13l-.08.72q-.84-.1-1.14-.1a1.43,1.43,0,0,0-1.37.64,5,5,0,0,0-.36,2.27v.31h2.35v.8h-2.35v8.83Z"/><path class="cls-1" d="M209.28,335a4.08,4.08,0,0,1-.75-.07l-.08-.9h.61a3,3,0,0,0,1.66-.38,3.13,3.13,0,0,0,1-1.48l.28-.76.35-1-3.85-9.7h1.14l3.28,8.67.4-1.21q2.42-7.55,2.48-7.54s0,0,0,.09h1.14l-4,11.32a5.77,5.77,0,0,1-1.42,2.17A3.2,3.2,0,0,1,209.28,335Z"/><path class="cls-1" d="M222.92,330.68a4.09,4.09,0,0,1-2.31-.66,4.21,4.21,0,0,1-1.52-1.79,6,6,0,0,1-.52-2.55,6.33,6.33,0,0,1,.3-2,4.78,4.78,0,0,1,.87-1.59,3.9,3.9,0,0,1,1.4-1.05,4.39,4.39,0,0,1,1.85-.38,4,4,0,0,1,3.84,2.45,6.25,6.25,0,0,1,.5,2.55,6.16,6.16,0,0,1-.51,2.57,4.12,4.12,0,0,1-1.52,1.79A4.22,4.22,0,0,1,222.92,330.68Zm.08-.87a2.83,2.83,0,0,0,1.78-.56,3.16,3.16,0,0,0,1.05-1.47,6.17,6.17,0,0,0,.33-2.1,5.14,5.14,0,0,0-.79-3,2.74,2.74,0,0,0-2.41-1.13,2.87,2.87,0,0,0-1.8.57,3.25,3.25,0,0,0-1.09,1.48,6,6,0,0,0-.34,2.11,4.89,4.89,0,0,0,.84,3A2.81,2.81,0,0,0,223,329.81Z"/><path class="cls-1" d="M233.77,330.71a5.5,5.5,0,0,1-1.4-.17,4.06,4.06,0,0,1-1.2-.54,2.48,2.48,0,0,1-.87-1,3.6,3.6,0,0,1-.32-1.57v-6.56h1.09v6.58a2.85,2.85,0,0,0,.21,1.16,1.54,1.54,0,0,0,.61.71,2.68,2.68,0,0,0,.84.34,5,5,0,0,0,1,.1,4.69,4.69,0,0,0,1-.1,2.59,2.59,0,0,0,.83-.35,1.57,1.57,0,0,0,.59-.72,2.84,2.84,0,0,0,.21-1.15v-6.58h1.09v6.56a3.84,3.84,0,0,1-.21,1.32,2.69,2.69,0,0,1-.56.95,2.91,2.91,0,0,1-.85.61,3.93,3.93,0,0,1-1,.34A6.16,6.16,0,0,1,233.77,330.71Z"/><path class="cls-1" d="M249.32,330.68A4.09,4.09,0,0,1,247,330a4.21,4.21,0,0,1-1.52-1.79,6,6,0,0,1-.52-2.55,6.33,6.33,0,0,1,.3-2,4.78,4.78,0,0,1,.87-1.59,3.9,3.9,0,0,1,1.4-1.05,4.39,4.39,0,0,1,1.85-.38,4,4,0,0,1,3.84,2.45,6.25,6.25,0,0,1,.5,2.55,6.16,6.16,0,0,1-.51,2.57A4.12,4.12,0,0,1,251.7,330,4.22,4.22,0,0,1,249.32,330.68Zm.08-.87a2.83,2.83,0,0,0,1.78-.56,3.16,3.16,0,0,0,1.05-1.47,6.17,6.17,0,0,0,.33-2.1,5.14,5.14,0,0,0-.79-3,2.74,2.74,0,0,0-2.41-1.13,2.87,2.87,0,0,0-1.8.57,3.25,3.25,0,0,0-1.09,1.48,6,6,0,0,0-.34,2.11,4.89,4.89,0,0,0,.84,3A2.81,2.81,0,0,0,249.4,329.81Z"/><path class="cls-1" d="M257.2,330.47v-8.83h-1.58l.07-.68,1.51-.12v-.36a4.55,4.55,0,0,1,.66-2.76,2.41,2.41,0,0,1,2-.86,11.26,11.26,0,0,1,1.34.13l-.08.72q-.84-.1-1.14-.1a1.43,1.43,0,0,0-1.37.64,5,5,0,0,0-.36,2.27v.31h2.35v.8h-2.35v8.83Z"/><path class="cls-1" d="M270.42,330.67a2.46,2.46,0,0,1-1.78-.55,2.41,2.41,0,0,1-.56-1.79v-6.7h-1.36l.08-.66,1.3-.12.29-2.21.76-.05v2.24H272v.8h-2.81v6.47a2,2,0,0,0,.33,1.37,1.6,1.6,0,0,0,1.18.35,5.76,5.76,0,0,0,1.35-.2l0,.84A9.1,9.1,0,0,1,270.42,330.67Z"/><path class="cls-1" d="M274.37,330.47V317.1l1.09-.1v4.85a.36.36,0,0,1,0,.08.53.53,0,0,0,0,.1v.26a3.91,3.91,0,0,1,3.38-1.63q3.14,0,3.14,3.79v6h-1.08v-5.81a4.24,4.24,0,0,0-.5-2.35,2,2,0,0,0-1.77-.72,3.26,3.26,0,0,0-2.09.66,2.76,2.76,0,0,0-1,1.71c0,.23,0,.58,0,1v5.47Z"/><path class="cls-1" d="M289.09,330.68a4,4,0,0,1-3.17-1.34,5.29,5.29,0,0,1-1.17-3.62,5.53,5.53,0,0,1,1.15-3.61,3.78,3.78,0,0,1,3-1.45,3.39,3.39,0,0,1,2.72,1.21,4.86,4.86,0,0,1,1,3.25c0,.05,0,.16,0,.32s0,.28,0,.34H285.9a4.61,4.61,0,0,0,.9,2.94,2.84,2.84,0,0,0,2.32,1.09,5.44,5.44,0,0,0,1.63-.22,8.58,8.58,0,0,0,1.45-.62l.18.82A6.17,6.17,0,0,1,289.09,330.68Zm-3.15-5.77h5.48a3.84,3.84,0,0,0-.69-2.47,2.32,2.32,0,0,0-1.91-.86,2.45,2.45,0,0,0-2,.91A4.32,4.32,0,0,0,285.94,324.91Z"/><path class="cls-1" d="M300.3,330.47v-9.63h.95l.15,1.49a3.62,3.62,0,0,1,1.39-1.22,4.12,4.12,0,0,1,1.89-.44,3,3,0,0,1,2.44.91,4.44,4.44,0,0,1,.78,2.92v6h-1.1V324a2.9,2.9,0,0,0-.54-1.85,2.1,2.1,0,0,0-1.64-.56,3.34,3.34,0,0,0-2.14.66,2.82,2.82,0,0,0-1,1.71q0,.41,0,.86v5.65Z"/><path class="cls-1" d="M314.74,330.71a5.5,5.5,0,0,1-1.4-.17,4.06,4.06,0,0,1-1.2-.54,2.48,2.48,0,0,1-.87-1,3.6,3.6,0,0,1-.32-1.57v-6.56H312v6.58a2.85,2.85,0,0,0,.21,1.16,1.54,1.54,0,0,0,.61.71,2.68,2.68,0,0,0,.84.34,5,5,0,0,0,1,.1,4.69,4.69,0,0,0,1-.1,2.59,2.59,0,0,0,.83-.35,1.57,1.57,0,0,0,.59-.72,2.84,2.84,0,0,0,.21-1.15v-6.58h1.09v6.56a3.84,3.84,0,0,1-.21,1.32,2.69,2.69,0,0,1-.56.95,2.91,2.91,0,0,1-.85.61,3.93,3.93,0,0,1-1,.34A6.16,6.16,0,0,1,314.74,330.71Z"/><path class="cls-1" d="M321.62,330.47q0-8.74,0-9.63h.95l.14,1.48a3.23,3.23,0,0,1,1.26-1.19,3.61,3.61,0,0,1,1.78-.47,2.68,2.68,0,0,1,2.9,1.82,3.46,3.46,0,0,1,3.24-1.82,2.84,2.84,0,0,1,2.32.9,4.15,4.15,0,0,1,.74,2.69v6.22h-1.09v-4.71c0-.45,0-.82,0-1.12s0-.62-.08-1a3.46,3.46,0,0,0-.2-.86,2.94,2.94,0,0,0-.36-.63,1.3,1.3,0,0,0-.56-.44,2.12,2.12,0,0,0-.81-.14,2.8,2.8,0,0,0-1.88.65,3.44,3.44,0,0,0-1.07,1.84q0,.9,0,1.39v5h-1.08v-4.9q0-.75,0-1.3a6.61,6.61,0,0,0-.18-1.08,2.73,2.73,0,0,0-.36-.86,1.65,1.65,0,0,0-.6-.54,1.85,1.85,0,0,0-.89-.2,3.12,3.12,0,0,0-2,.64,2.92,2.92,0,0,0-1,1.74c0,.24,0,.58,0,1v5.47Z"/><path class="cls-1" d="M342.32,330.68a3.65,3.65,0,0,1-3.12-1.61l-.11,1.4h-.91V317.1l1.08-.1v3.24q0,1.49,0,2a3.38,3.38,0,0,1,1.37-1.23,3.9,3.9,0,0,1,1.73-.4,3.66,3.66,0,0,1,3,1.39,5.65,5.65,0,0,1,1.09,3.59,6.89,6.89,0,0,1-.45,2.6,3.79,3.79,0,0,1-3.69,2.44Zm.05-.87a2.72,2.72,0,0,0,1.4-.35,2.36,2.36,0,0,0,.91-.95,4.84,4.84,0,0,0,.47-1.3,7.46,7.46,0,0,0,.15-1.52,8.57,8.57,0,0,0-.08-1.23,5.09,5.09,0,0,0-.3-1.12,3.4,3.4,0,0,0-.54-.94,2.34,2.34,0,0,0-.83-.62,2.77,2.77,0,0,0-1.17-.24,2.7,2.7,0,0,0-2.32,1.09,5.14,5.14,0,0,0-.8,3.11,7.17,7.17,0,0,0,.17,1.65,3.89,3.89,0,0,0,.54,1.28,2.39,2.39,0,0,0,1,.84A3.26,3.26,0,0,0,342.38,329.81Z"/><path class="cls-1" d="M353.23,330.68a4,4,0,0,1-3.17-1.34,5.29,5.29,0,0,1-1.17-3.62,5.53,5.53,0,0,1,1.15-3.61,3.78,3.78,0,0,1,3-1.45,3.39,3.39,0,0,1,2.72,1.21,4.86,4.86,0,0,1,1,3.25c0,.05,0,.16,0,.32s0,.28,0,.34H350a4.61,4.61,0,0,0,.9,2.94,2.84,2.84,0,0,0,2.32,1.09,5.44,5.44,0,0,0,1.63-.22,8.58,8.58,0,0,0,1.45-.62l.18.82A6.17,6.17,0,0,1,353.23,330.68Zm-3.15-5.77h5.48a3.84,3.84,0,0,0-.69-2.47,2.32,2.32,0,0,0-1.91-.86,2.45,2.45,0,0,0-2,.91A4.32,4.32,0,0,0,350.08,324.91Z"/><path class="cls-1" d="M359.67,330.47q0-8.48,0-9.63h.9l.07,1.9a4.46,4.46,0,0,1,1.32-1.41,2.92,2.92,0,0,1,1.67-.54,5.27,5.27,0,0,1,.77.06l-.08.9a4.06,4.06,0,0,0-.67-.05,2.6,2.6,0,0,0-2.05,1,3.38,3.38,0,0,0-.83,2.28v5.53Z"/><path class="cls-1" d="M41.76,352.28a4.09,4.09,0,0,1-2.31-.66,4.21,4.21,0,0,1-1.52-1.79,6,6,0,0,1-.52-2.55,6.33,6.33,0,0,1,.3-2,4.78,4.78,0,0,1,.87-1.59,3.9,3.9,0,0,1,1.4-1.05,4.39,4.39,0,0,1,1.85-.38,4,4,0,0,1,3.84,2.45,6.25,6.25,0,0,1,.5,2.55,6.16,6.16,0,0,1-.51,2.57,4.12,4.12,0,0,1-1.52,1.79A4.22,4.22,0,0,1,41.76,352.28Zm.08-.87a2.83,2.83,0,0,0,1.78-.56,3.16,3.16,0,0,0,1.05-1.47,6.17,6.17,0,0,0,.33-2.1,5.14,5.14,0,0,0-.79-3,2.74,2.74,0,0,0-2.41-1.13,2.87,2.87,0,0,0-1.8.57,3.25,3.25,0,0,0-1.09,1.48,6,6,0,0,0-.34,2.11,4.89,4.89,0,0,0,.84,3A2.81,2.81,0,0,0,41.84,351.41Z"/><path class="cls-1" d="M49.63,352.07v-8.83H48.05l.07-.68,1.51-.12v-.36a4.55,4.55,0,0,1,.66-2.76,2.41,2.41,0,0,1,2-.86,11.26,11.26,0,0,1,1.34.13l-.08.72q-.84-.1-1.14-.1a1.43,1.43,0,0,0-1.37.64,5,5,0,0,0-.36,2.27v.31h2.35v.8H50.72v8.83Z"/><path class="cls-1" d="M64.29,352.28a3.65,3.65,0,0,1-3.12-1.61l-.11,1.4h-.91V338.7l1.08-.1v3.24q0,1.49,0,2a3.38,3.38,0,0,1,1.37-1.23,3.9,3.9,0,0,1,1.73-.4,3.66,3.66,0,0,1,3,1.39,5.65,5.65,0,0,1,1.09,3.59,6.89,6.89,0,0,1-.45,2.6,3.79,3.79,0,0,1-3.69,2.44Zm.05-.87a2.72,2.72,0,0,0,1.4-.35,2.36,2.36,0,0,0,.91-.95,4.84,4.84,0,0,0,.47-1.3,7.46,7.46,0,0,0,.15-1.52,8.57,8.57,0,0,0-.08-1.23,5.09,5.09,0,0,0-.3-1.12,3.4,3.4,0,0,0-.54-.94,2.34,2.34,0,0,0-.83-.62,2.77,2.77,0,0,0-1.17-.24A2.7,2.7,0,0,0,62,344.25a5.14,5.14,0,0,0-.8,3.11A7.17,7.17,0,0,0,61.4,349a3.89,3.89,0,0,0,.54,1.28,2.39,2.39,0,0,0,1,.84A3.26,3.26,0,0,0,64.34,351.41Z"/><path class="cls-1" d="M75.21,352.28a4.09,4.09,0,0,1-2.31-.66,4.21,4.21,0,0,1-1.52-1.79,6,6,0,0,1-.52-2.55,6.33,6.33,0,0,1,.3-2A4.78,4.78,0,0,1,72,343.7a3.9,3.9,0,0,1,1.4-1.05,4.39,4.39,0,0,1,1.85-.38,4,4,0,0,1,3.84,2.45,6.25,6.25,0,0,1,.5,2.55,6.16,6.16,0,0,1-.51,2.57,4.12,4.12,0,0,1-1.52,1.79A4.22,4.22,0,0,1,75.21,352.28Zm.08-.87a2.83,2.83,0,0,0,1.78-.56,3.16,3.16,0,0,0,1.05-1.47,6.17,6.17,0,0,0,.33-2.1,5.14,5.14,0,0,0-.79-3,2.74,2.74,0,0,0-2.41-1.13,2.87,2.87,0,0,0-1.8.57,3.25,3.25,0,0,0-1.09,1.48,6,6,0,0,0-.34,2.11,4.89,4.89,0,0,0,.84,3A2.81,2.81,0,0,0,75.29,351.41Z"/><path class="cls-1" d="M82.5,352.07q0-8.74,0-9.63h.95l.14,1.48a3.23,3.23,0,0,1,1.26-1.19,3.61,3.61,0,0,1,1.78-.47,2.68,2.68,0,0,1,2.9,1.82,3.46,3.46,0,0,1,3.24-1.82,2.84,2.84,0,0,1,2.32.9,4.15,4.15,0,0,1,.74,2.69v6.22H94.73v-4.71c0-.45,0-.82,0-1.12s0-.62-.08-1a3.46,3.46,0,0,0-.2-.86,2.94,2.94,0,0,0-.36-.63,1.3,1.3,0,0,0-.56-.44,2.12,2.12,0,0,0-.81-.14,2.8,2.8,0,0,0-1.88.65,3.44,3.44,0,0,0-1.07,1.84q0,.9,0,1.39v5H88.71v-4.9q0-.75,0-1.3a6.61,6.61,0,0,0-.18-1.08,2.73,2.73,0,0,0-.36-.86,1.65,1.65,0,0,0-.6-.54,1.85,1.85,0,0,0-.89-.2,3.12,3.12,0,0,0-2,.64,2.92,2.92,0,0,0-1,1.74c0,.24,0,.58,0,1v5.47Z"/><path class="cls-1" d="M103.21,352.28a3.65,3.65,0,0,1-3.12-1.61l-.11,1.4h-.91V338.7l1.08-.1v3.24q0,1.49,0,2a3.38,3.38,0,0,1,1.37-1.23,3.9,3.9,0,0,1,1.73-.4,3.66,3.66,0,0,1,3,1.39,5.65,5.65,0,0,1,1.09,3.59,6.89,6.89,0,0,1-.45,2.6,3.79,3.79,0,0,1-3.69,2.44Zm.05-.87a2.72,2.72,0,0,0,1.4-.35,2.36,2.36,0,0,0,.91-.95,4.84,4.84,0,0,0,.47-1.3,7.46,7.46,0,0,0,.15-1.52,8.57,8.57,0,0,0-.08-1.23,5.09,5.09,0,0,0-.3-1.12,3.4,3.4,0,0,0-.54-.94,2.34,2.34,0,0,0-.83-.62,2.77,2.77,0,0,0-1.17-.24,2.7,2.7,0,0,0-2.32,1.09,5.14,5.14,0,0,0-.8,3.11,7.17,7.17,0,0,0,.17,1.65,3.89,3.89,0,0,0,.54,1.28,2.39,2.39,0,0,0,1,.84A3.26,3.26,0,0,0,103.26,351.41Z"/><path class="cls-1" d="M113,352.29a6.47,6.47,0,0,1-1.75-.23,4.57,4.57,0,0,1-1.29-.54l.16-.91a6,6,0,0,0,2.78.76q2.38,0,2.47-1.77a1.47,1.47,0,0,0-.48-1.16,5.83,5.83,0,0,0-1.92-.88l-.83-.29q-2.26-.69-2.28-2.44a2.32,2.32,0,0,1,.89-1.79,3.55,3.55,0,0,1,2.41-.78,6.91,6.91,0,0,1,2.86.6l-.37.81a7.17,7.17,0,0,0-2.51-.51,2.54,2.54,0,0,0-1.6.46,1.48,1.48,0,0,0-.58,1.23,1.28,1.28,0,0,0,.38,1,4,4,0,0,0,1.52.66l.45.16.36.13a4.94,4.94,0,0,1,2.12,1.1,2.43,2.43,0,0,1,.6,1.74,2.38,2.38,0,0,1-.94,2A3.94,3.94,0,0,1,113,352.29Z"/><path class="cls-1" d="M126.59,352.28a3.28,3.28,0,0,1-2.18-.69,2.41,2.41,0,0,1-.82-2,2.57,2.57,0,0,1,.33-1.31,2.46,2.46,0,0,1,.94-.91,5.61,5.61,0,0,1,1.42-.54,11.56,11.56,0,0,1,1.85-.27l1.67-.11v-1.07a2.41,2.41,0,0,0-.51-1.67,2.09,2.09,0,0,0-1.62-.56,5.84,5.84,0,0,0-2.86.73l-.16-.38c-.08-.2-.15-.35-.18-.45a5.08,5.08,0,0,1,1.42-.59,6.59,6.59,0,0,1,1.72-.24,3.47,3.47,0,0,1,2.49.74,3.64,3.64,0,0,1,.76,2.63v6.43H130c0-.13-.07-.4-.13-.8s-.08-.6-.08-.62A3.68,3.68,0,0,1,126.59,352.28Zm0-.87a3.21,3.21,0,0,0,2-.66,3.1,3.1,0,0,0,1.15-1.84v-1.64l-1.27.11a7.48,7.48,0,0,0-3,.7,1.72,1.72,0,0,0-.83,1.58,1.61,1.61,0,0,0,.53,1.32A2.14,2.14,0,0,0,126.63,351.41Z"/><path class="cls-1" d="M137.84,352.27a3.64,3.64,0,0,1-3-1.34,5.73,5.73,0,0,1-1.08-3.69,5.57,5.57,0,0,1,1.11-3.6,3.57,3.57,0,0,1,2.93-1.38,4.49,4.49,0,0,1,1.79.39,2.8,2.8,0,0,1,1.36,1.21V338.7l1.05-.1v13.46h-.91l-.16-1.45a3.21,3.21,0,0,1-1.36,1.23A4,4,0,0,1,137.84,352.27Zm0-.86a3.24,3.24,0,0,0,1.43-.3,2.47,2.47,0,0,0,1-.84,4,4,0,0,0,.55-1.25,6.35,6.35,0,0,0,.18-1.57q0-4.3-3.16-4.3a2.43,2.43,0,0,0-1.32.36,2.55,2.55,0,0,0-.9,1,5,5,0,0,0-.49,1.31,6.82,6.82,0,0,0-.16,1.49,7.9,7.9,0,0,0,.1,1.27,5.16,5.16,0,0,0,.32,1.13,3.37,3.37,0,0,0,.54.92,2.32,2.32,0,0,0,.82.61A2.66,2.66,0,0,0,137.82,351.41Z"/><path class="cls-1" d="M143.52,356.91l-.17-.88h.43a3.92,3.92,0,0,0,1-.09.75.75,0,0,0,.5-.4,1.62,1.62,0,0,0,.18-.58c0-.18,0-.5,0-.94V342.44h1.1v11.8a6.3,6.3,0,0,1-.11,1.32,1.63,1.63,0,0,1-.41.8,1.56,1.56,0,0,1-.78.43,5.78,5.78,0,0,1-1.29.11Zm1.92-16.44V339h1.1v1.47Z"/><path class="cls-1" d="M152.2,352.28a3.28,3.28,0,0,1-2.18-.69,2.41,2.41,0,0,1-.82-2,2.57,2.57,0,0,1,.33-1.31,2.46,2.46,0,0,1,.94-.91,5.61,5.61,0,0,1,1.42-.54,11.56,11.56,0,0,1,1.85-.27l1.67-.11v-1.07a2.41,2.41,0,0,0-.51-1.67,2.09,2.09,0,0,0-1.62-.56,5.84,5.84,0,0,0-2.86.73l-.16-.38c-.08-.2-.15-.35-.18-.45a5.08,5.08,0,0,1,1.42-.59,6.59,6.59,0,0,1,1.72-.24,3.47,3.47,0,0,1,2.49.74,3.64,3.64,0,0,1,.76,2.63v6.43h-.85c0-.13-.07-.4-.13-.8s-.08-.6-.08-.62A3.68,3.68,0,0,1,152.2,352.28Zm0-.87a3.21,3.21,0,0,0,2-.66,3.1,3.1,0,0,0,1.15-1.84v-1.64l-1.27.11a7.48,7.48,0,0,0-3,.7,1.72,1.72,0,0,0-.83,1.58,1.61,1.61,0,0,0,.53,1.32A2.14,2.14,0,0,0,152.24,351.41Z"/><path class="cls-1" d="M163.83,352.28a4.27,4.27,0,0,1-2.43-.69,4.2,4.2,0,0,1-1.53-1.79,5.86,5.86,0,0,1-.5-2.46,6.24,6.24,0,0,1,.3-2,5.25,5.25,0,0,1,.85-1.62,3.86,3.86,0,0,1,1.42-1.11,4.48,4.48,0,0,1,1.93-.41,5.34,5.34,0,0,1,1.38.19,3,3,0,0,1,1,.44l-.34.82a4.3,4.3,0,0,0-2.14-.51,2.85,2.85,0,0,0-2.38,1.14,4.81,4.81,0,0,0-.88,3,4.57,4.57,0,0,0,.87,2.91,2.87,2.87,0,0,0,2.39,1.11,5.71,5.71,0,0,0,2.27-.53l.17.78a3.06,3.06,0,0,1-1.07.48A5.18,5.18,0,0,1,163.83,352.28Z"/><path class="cls-1" d="M172.88,352.28a4,4,0,0,1-3.17-1.34,5.29,5.29,0,0,1-1.17-3.62,5.53,5.53,0,0,1,1.15-3.61,3.78,3.78,0,0,1,3-1.45,3.39,3.39,0,0,1,2.72,1.21,4.86,4.86,0,0,1,1,3.25c0,.05,0,.16,0,.32s0,.28,0,.34h-6.71a4.61,4.61,0,0,0,.9,2.94,2.84,2.84,0,0,0,2.32,1.09,5.44,5.44,0,0,0,1.63-.22,8.58,8.58,0,0,0,1.45-.62l.18.82A6.17,6.17,0,0,1,172.88,352.28Zm-3.15-5.77h5.48a3.84,3.84,0,0,0-.69-2.47,2.32,2.32,0,0,0-1.91-.86,2.45,2.45,0,0,0-2,.91A4.32,4.32,0,0,0,169.73,346.51Z"/><path class="cls-1" d="M179.3,352.07v-9.63h.95l.15,1.49a3.62,3.62,0,0,1,1.39-1.22,4.12,4.12,0,0,1,1.89-.44,3,3,0,0,1,2.44.91,4.44,4.44,0,0,1,.78,2.92v6h-1.1V345.6a2.9,2.9,0,0,0-.54-1.85,2.1,2.1,0,0,0-1.64-.56,3.34,3.34,0,0,0-2.14.66,2.82,2.82,0,0,0-1,1.71q0,.41,0,.86v5.65Z"/><path class="cls-1" d="M192.87,352.27a2.46,2.46,0,0,1-1.78-.55,2.41,2.41,0,0,1-.56-1.79v-6.7h-1.36l.08-.66,1.3-.12.29-2.21.76-.05v2.24h2.81v.8H191.6v6.47a2,2,0,0,0,.33,1.37,1.6,1.6,0,0,0,1.18.35,5.76,5.76,0,0,0,1.35-.2l0,.84A9.1,9.1,0,0,1,192.87,352.27Z"/><path class="cls-1" d="M204.32,352.27a2.46,2.46,0,0,1-1.78-.55,2.41,2.41,0,0,1-.56-1.79v-6.7h-1.36l.08-.66,1.3-.12.29-2.21.76-.05v2.24h2.81v.8h-2.81v6.47a2,2,0,0,0,.33,1.37,1.6,1.6,0,0,0,1.18.35,5.76,5.76,0,0,0,1.35-.2l0,.84A9.1,9.1,0,0,1,204.32,352.27Z"/><path class="cls-1" d="M212.17,352.28a4.09,4.09,0,0,1-2.31-.66,4.21,4.21,0,0,1-1.52-1.79,6,6,0,0,1-.52-2.55,6.33,6.33,0,0,1,.3-2,4.78,4.78,0,0,1,.87-1.59,3.9,3.9,0,0,1,1.4-1.05,4.39,4.39,0,0,1,1.85-.38,4,4,0,0,1,3.84,2.45,6.25,6.25,0,0,1,.5,2.55,6.16,6.16,0,0,1-.51,2.57,4.12,4.12,0,0,1-1.52,1.79A4.22,4.22,0,0,1,212.17,352.28Zm.08-.87a2.83,2.83,0,0,0,1.78-.56,3.16,3.16,0,0,0,1.05-1.47,6.17,6.17,0,0,0,.33-2.1,5.14,5.14,0,0,0-.79-3,2.74,2.74,0,0,0-2.41-1.13,2.87,2.87,0,0,0-1.8.57,3.25,3.25,0,0,0-1.09,1.48,6,6,0,0,0-.34,2.11,4.89,4.89,0,0,0,.84,3A2.81,2.81,0,0,0,212.25,351.41Z"/><path class="cls-1" d="M226.95,352.27a2.46,2.46,0,0,1-1.78-.55,2.41,2.41,0,0,1-.56-1.79v-6.7h-1.36l.08-.66,1.3-.12.29-2.21.76-.05v2.24h2.81v.8h-2.81v6.47a2,2,0,0,0,.33,1.37,1.6,1.6,0,0,0,1.18.35,5.76,5.76,0,0,0,1.35-.2l0,.84A9.1,9.1,0,0,1,226.95,352.27Z"/><path class="cls-1" d="M230.89,352.07V338.7l1.09-.1v4.85a.36.36,0,0,1,0,.08.53.53,0,0,0,0,.1v.26a3.91,3.91,0,0,1,3.38-1.63q3.14,0,3.14,3.79v6h-1.08v-5.81a4.24,4.24,0,0,0-.5-2.35,2,2,0,0,0-1.77-.72,3.26,3.26,0,0,0-2.09.66,2.76,2.76,0,0,0-1,1.71c0,.23,0,.58,0,1v5.47Z"/><path class="cls-1" d="M245.61,352.28a4,4,0,0,1-3.17-1.34,5.29,5.29,0,0,1-1.17-3.62,5.53,5.53,0,0,1,1.15-3.61,3.78,3.78,0,0,1,3-1.45,3.39,3.39,0,0,1,2.72,1.21,4.86,4.86,0,0,1,1,3.25c0,.05,0,.16,0,.32s0,.28,0,.34h-6.71a4.61,4.61,0,0,0,.9,2.94,2.84,2.84,0,0,0,2.32,1.09,5.44,5.44,0,0,0,1.63-.22,8.58,8.58,0,0,0,1.45-.62l.18.82A6.17,6.17,0,0,1,245.61,352.28Zm-3.15-5.77H248a3.84,3.84,0,0,0-.69-2.47,2.32,2.32,0,0,0-1.91-.86,2.45,2.45,0,0,0-2,.91A4.32,4.32,0,0,0,242.47,346.51Z"/><path class="cls-1" d="M259.64,352.29a6.47,6.47,0,0,1-1.75-.23,4.57,4.57,0,0,1-1.29-.54l.16-.91a6,6,0,0,0,2.78.76q2.38,0,2.47-1.77a1.47,1.47,0,0,0-.48-1.16,5.83,5.83,0,0,0-1.92-.88l-.83-.29q-2.26-.69-2.28-2.44a2.32,2.32,0,0,1,.89-1.79,3.55,3.55,0,0,1,2.41-.78,6.91,6.91,0,0,1,2.86.6l-.37.81a7.17,7.17,0,0,0-2.51-.51,2.54,2.54,0,0,0-1.6.46,1.48,1.48,0,0,0-.58,1.23,1.28,1.28,0,0,0,.38,1,4,4,0,0,0,1.52.66l.45.16.36.13a4.94,4.94,0,0,1,2.12,1.1,2.43,2.43,0,0,1,.6,1.74,2.38,2.38,0,0,1-.94,2A3.94,3.94,0,0,1,259.64,352.29Z"/><path class="cls-1" d="M268.42,352.28a3.28,3.28,0,0,1-2.18-.69,2.41,2.41,0,0,1-.82-2,2.57,2.57,0,0,1,.33-1.31,2.46,2.46,0,0,1,.94-.91,5.61,5.61,0,0,1,1.42-.54,11.56,11.56,0,0,1,1.85-.27l1.67-.11v-1.07a2.41,2.41,0,0,0-.51-1.67,2.09,2.09,0,0,0-1.62-.56,5.84,5.84,0,0,0-2.86.73l-.16-.38c-.08-.2-.15-.35-.18-.45a5.08,5.08,0,0,1,1.42-.59,6.59,6.59,0,0,1,1.72-.24,3.47,3.47,0,0,1,2.49.74,3.64,3.64,0,0,1,.76,2.63v6.43h-.85c0-.13-.07-.4-.13-.8s-.08-.6-.08-.62A3.68,3.68,0,0,1,268.42,352.28Zm0-.87a3.21,3.21,0,0,0,2-.66,3.1,3.1,0,0,0,1.15-1.84v-1.64l-1.27.11a7.48,7.48,0,0,0-3,.7,1.72,1.72,0,0,0-.83,1.58A1.61,1.61,0,0,0,267,351,2.14,2.14,0,0,0,268.45,351.41Z"/><path class="cls-1" d="M276.64,352.07v-8.83h-1.58l.07-.68,1.51-.12v-.36a4.55,4.55,0,0,1,.66-2.76,2.41,2.41,0,0,1,2-.86,11.26,11.26,0,0,1,1.34.13l-.08.72q-.84-.1-1.14-.1a1.43,1.43,0,0,0-1.37.64,5,5,0,0,0-.36,2.27v.31h2.35v.8h-2.35v8.83Z"/><path class="cls-1" d="M286.13,352.28a4,4,0,0,1-3.17-1.34,5.29,5.29,0,0,1-1.17-3.62,5.53,5.53,0,0,1,1.15-3.61,3.78,3.78,0,0,1,3-1.45,3.39,3.39,0,0,1,2.72,1.21,4.86,4.86,0,0,1,1,3.25c0,.05,0,.16,0,.32s0,.28,0,.34h-6.71a4.61,4.61,0,0,0,.9,2.94,2.84,2.84,0,0,0,2.32,1.09,5.44,5.44,0,0,0,1.63-.22,8.58,8.58,0,0,0,1.45-.62l.18.82A6.17,6.17,0,0,1,286.13,352.28ZM283,346.51h5.48a3.84,3.84,0,0,0-.69-2.47,2.32,2.32,0,0,0-1.91-.86,2.45,2.45,0,0,0-2,.91A4.32,4.32,0,0,0,283,346.51Z"/><path class="cls-1" d="M300.06,352.27a2.46,2.46,0,0,1-1.78-.55,2.41,2.41,0,0,1-.56-1.79v-6.7h-1.36l.08-.66,1.3-.12.29-2.21.76-.05v2.24h2.81v.8h-2.81v6.47a2,2,0,0,0,.33,1.37,1.6,1.6,0,0,0,1.18.35,5.76,5.76,0,0,0,1.35-.2l0,.84A9.1,9.1,0,0,1,300.06,352.27Z"/><path class="cls-1" d="M304.12,340.47V339h1.09v1.48Zm0,11.6v-9.63h1.1v9.63Z"/><path class="cls-1" d="M311.06,352.27a2.46,2.46,0,0,1-1.78-.55,2.41,2.41,0,0,1-.56-1.79V338.69l1.07-.09v11.27a1.76,1.76,0,0,0,.32,1.21,1.29,1.29,0,0,0,1,.33,5.51,5.51,0,0,0,1.32-.2l0,.84A6.15,6.15,0,0,1,311.06,352.27Z"/><path class="cls-1" d="M318.36,352.28a4,4,0,0,1-3.17-1.34,5.29,5.29,0,0,1-1.17-3.62,5.53,5.53,0,0,1,1.15-3.61,3.78,3.78,0,0,1,3-1.45,3.39,3.39,0,0,1,2.72,1.21,4.86,4.86,0,0,1,1,3.25c0,.05,0,.16,0,.32s0,.28,0,.34h-6.71a4.61,4.61,0,0,0,.9,2.94,2.84,2.84,0,0,0,2.32,1.09,5.44,5.44,0,0,0,1.63-.22,8.58,8.58,0,0,0,1.45-.62l.18.82A6.17,6.17,0,0,1,318.36,352.28Zm-3.15-5.77h5.48A3.84,3.84,0,0,0,320,344a2.32,2.32,0,0,0-1.91-.86,2.45,2.45,0,0,0-2,.91A4.32,4.32,0,0,0,315.21,346.51Z"/><path class="cls-1" d="M326,352.14a.88.88,0,0,1-.7-.27,1,1,0,0,1-.24-.64.93.93,0,0,1,.24-.63.88.88,0,0,1,.7-.27.9.9,0,0,1,.72.27.93.93,0,0,1,.24.63,1,1,0,0,1-.24.64A.9.9,0,0,1,326,352.14Z"/><path class="cls-1" d="M443.41,330.47l5.11-13.08h1.08l4.92,13.08h-1.16L451.69,326h-5.42l-1.74,4.44Zm3.29-5.26h4.59q-2-5.68-2.24-6.68-.11.39-.69,2.06t-1.12,3.15Z"/><path class="cls-1" d="M465.52,330.68a3.65,3.65,0,0,1-3.12-1.61l-.11,1.4h-.91V317.1l1.08-.1v3.24q0,1.49,0,2a3.38,3.38,0,0,1,1.37-1.23,3.9,3.9,0,0,1,1.73-.4,3.66,3.66,0,0,1,3,1.39,5.64,5.64,0,0,1,1.09,3.59,6.89,6.89,0,0,1-.45,2.6,3.79,3.79,0,0,1-3.69,2.44Zm.05-.87a2.73,2.73,0,0,0,1.4-.35,2.37,2.37,0,0,0,.91-.95,4.85,4.85,0,0,0,.47-1.3,7.47,7.47,0,0,0,.15-1.52,8.54,8.54,0,0,0-.08-1.23,5.07,5.07,0,0,0-.3-1.12,3.39,3.39,0,0,0-.54-.94,2.33,2.33,0,0,0-.83-.62,2.77,2.77,0,0,0-1.17-.24,2.71,2.71,0,0,0-2.32,1.09,5.13,5.13,0,0,0-.8,3.11,7.18,7.18,0,0,0,.17,1.65,3.9,3.9,0,0,0,.54,1.28,2.4,2.4,0,0,0,1,.84A3.27,3.27,0,0,0,465.57,329.81Z"/><path class="cls-1" d="M476.44,330.68a4.09,4.09,0,0,1-2.31-.66,4.22,4.22,0,0,1-1.52-1.79,6,6,0,0,1-.52-2.55,6.32,6.32,0,0,1,.3-2,4.78,4.78,0,0,1,.87-1.59,3.9,3.9,0,0,1,1.4-1.05,4.39,4.39,0,0,1,1.85-.38,4,4,0,0,1,3.84,2.45,6.25,6.25,0,0,1,.5,2.55,6.16,6.16,0,0,1-.51,2.57,4.13,4.13,0,0,1-1.52,1.79A4.22,4.22,0,0,1,476.44,330.68Zm.08-.87a2.83,2.83,0,0,0,1.78-.56,3.17,3.17,0,0,0,1.05-1.47,6.18,6.18,0,0,0,.33-2.1,5.14,5.14,0,0,0-.79-3,2.74,2.74,0,0,0-2.41-1.13,2.87,2.87,0,0,0-1.8.57,3.25,3.25,0,0,0-1.09,1.48,6,6,0,0,0-.34,2.11,4.89,4.89,0,0,0,.84,3A2.81,2.81,0,0,0,476.51,329.81Z"/><path class="cls-1" d="M483.73,330.47q0-8.74,0-9.63h.95l.14,1.48a3.23,3.23,0,0,1,1.26-1.19,3.61,3.61,0,0,1,1.78-.47,2.68,2.68,0,0,1,2.9,1.82,3.46,3.46,0,0,1,3.24-1.82,2.84,2.84,0,0,1,2.32.9,4.15,4.15,0,0,1,.74,2.69v6.22H496v-4.71q0-.67,0-1.12t-.08-1a3.46,3.46,0,0,0-.2-.86,2.94,2.94,0,0,0-.36-.63,1.3,1.3,0,0,0-.56-.44,2.12,2.12,0,0,0-.81-.14,2.8,2.8,0,0,0-1.88.65,3.44,3.44,0,0,0-1.07,1.84q0,.9,0,1.39v5h-1.08v-4.9q0-.75,0-1.3a6.61,6.61,0,0,0-.18-1.08,2.73,2.73,0,0,0-.36-.86,1.65,1.65,0,0,0-.6-.54,1.85,1.85,0,0,0-.89-.2,3.12,3.12,0,0,0-2,.64,2.92,2.92,0,0,0-1,1.74q0,.36,0,1v5.48Z"/><path class="cls-1" d="M504.44,330.68a3.65,3.65,0,0,1-3.12-1.61l-.11,1.4h-.91V317.1l1.08-.1v3.24q0,1.49,0,2a3.38,3.38,0,0,1,1.37-1.23,3.9,3.9,0,0,1,1.73-.4,3.66,3.66,0,0,1,3,1.39,5.64,5.64,0,0,1,1.09,3.59,6.89,6.89,0,0,1-.45,2.6,3.79,3.79,0,0,1-3.69,2.44Zm.05-.87a2.73,2.73,0,0,0,1.4-.35,2.37,2.37,0,0,0,.91-.95,4.85,4.85,0,0,0,.47-1.3,7.47,7.47,0,0,0,.15-1.52,8.54,8.54,0,0,0-.08-1.23,5.07,5.07,0,0,0-.3-1.12,3.39,3.39,0,0,0-.54-.94,2.33,2.33,0,0,0-.83-.62,2.77,2.77,0,0,0-1.17-.24,2.71,2.71,0,0,0-2.32,1.09,5.13,5.13,0,0,0-.8,3.11,7.18,7.18,0,0,0,.17,1.65,3.9,3.9,0,0,0,.54,1.28,2.4,2.4,0,0,0,1,.84A3.27,3.27,0,0,0,504.49,329.81Z"/><path class="cls-1" d="M518.95,330.67a2.46,2.46,0,0,1-1.78-.55,2.42,2.42,0,0,1-.56-1.79v-6.7h-1.36l.08-.66,1.3-.12.29-2.21.76-.05v2.24h2.81v.8h-2.81v6.47a2,2,0,0,0,.33,1.37,1.6,1.6,0,0,0,1.18.35,5.77,5.77,0,0,0,1.35-.2l0,.84A9.1,9.1,0,0,1,518.95,330.67Z"/><path class="cls-1" d="M523,318.87v-1.48h1.09v1.48Zm0,11.6v-9.63h1.1v9.63Z"/><path class="cls-1" d="M529.95,330.67a2.46,2.46,0,0,1-1.78-.55,2.42,2.42,0,0,1-.56-1.79V317.1l1.07-.09v11.27a1.76,1.76,0,0,0,.32,1.21,1.29,1.29,0,0,0,1,.33,5.52,5.52,0,0,0,1.32-.2l0,.84A6.15,6.15,0,0,1,529.95,330.67Z"/><path class="cls-1" d="M537.25,330.68a4,4,0,0,1-3.17-1.34,5.29,5.29,0,0,1-1.17-3.62,5.53,5.53,0,0,1,1.15-3.61,3.78,3.78,0,0,1,3-1.45,3.39,3.39,0,0,1,2.72,1.21,4.86,4.86,0,0,1,1,3.25c0,.05,0,.16,0,.32s0,.27,0,.34h-6.71a4.61,4.61,0,0,0,.9,2.94,2.84,2.84,0,0,0,2.32,1.08,5.44,5.44,0,0,0,1.63-.22,8.59,8.59,0,0,0,1.45-.62l.18.82A6.17,6.17,0,0,1,537.25,330.68Zm-3.15-5.77h5.48a3.83,3.83,0,0,0-.69-2.47,2.32,2.32,0,0,0-1.91-.86,2.45,2.45,0,0,0-2,.91A4.32,4.32,0,0,0,534.1,324.91Z"/><path class="cls-1" d="M550.06,330.47l-2.69-9.63h1.14l2.22,8.6q2.4-7.72,2.68-8.6h1.34q2.63,8.58,2.65,8.58l2.13-8.58h1.13L558,330.47h-1.27s-.43-1.34-1.24-4.05-1.28-4.3-1.41-4.77q-.11.47-.8,2.68T552,328.5q-.64,2-.65,2Z"/><path class="cls-1" d="M563,318.87v-1.48h1.09v1.48Zm0,11.6v-9.63h1.1v9.63Z"/><path class="cls-1" d="M569.93,330.67a2.46,2.46,0,0,1-1.78-.55,2.42,2.42,0,0,1-.56-1.79V317.1l1.07-.09v11.27a1.76,1.76,0,0,0,.32,1.21,1.29,1.29,0,0,0,1,.33,5.52,5.52,0,0,0,1.32-.2l0,.84A6.15,6.15,0,0,1,569.93,330.67Z"/><path class="cls-1" d="M575.75,330.67a2.46,2.46,0,0,1-1.78-.55,2.42,2.42,0,0,1-.56-1.79V317.1l1.07-.09v11.27a1.76,1.76,0,0,0,.32,1.21,1.29,1.29,0,0,0,1,.33,5.52,5.52,0,0,0,1.32-.2l0,.84A6.15,6.15,0,0,1,575.75,330.67Z"/><path class="cls-1" d="M588,330.68a4.27,4.27,0,0,1-2.43-.69,4.2,4.2,0,0,1-1.53-1.79,5.87,5.87,0,0,1-.5-2.46,6.24,6.24,0,0,1,.3-2,5.25,5.25,0,0,1,.85-1.62,3.86,3.86,0,0,1,1.42-1.11,4.48,4.48,0,0,1,1.93-.41,5.33,5.33,0,0,1,1.38.18,3,3,0,0,1,1,.44l-.34.82a4.3,4.3,0,0,0-2.14-.51,2.85,2.85,0,0,0-2.38,1.14,4.81,4.81,0,0,0-.88,3,4.57,4.57,0,0,0,.87,2.91,2.87,2.87,0,0,0,2.39,1.11,5.71,5.71,0,0,0,2.27-.53l.17.78a3.06,3.06,0,0,1-1.07.48A5.18,5.18,0,0,1,588,330.68Z"/><path class="cls-1" d="M595.72,330.68a3.28,3.28,0,0,1-2.18-.69,2.41,2.41,0,0,1-.82-2,2.56,2.56,0,0,1,.33-1.31,2.46,2.46,0,0,1,.94-.91,5.61,5.61,0,0,1,1.42-.54,11.57,11.57,0,0,1,1.85-.27l1.67-.11v-1.07a2.41,2.41,0,0,0-.51-1.67,2.09,2.09,0,0,0-1.62-.56,5.84,5.84,0,0,0-2.86.73l-.16-.38q-.13-.29-.18-.45a5.08,5.08,0,0,1,1.42-.59,6.59,6.59,0,0,1,1.72-.24,3.47,3.47,0,0,1,2.49.74A3.64,3.64,0,0,1,600,324v6.43h-.85q0-.2-.13-.8t-.08-.62A3.68,3.68,0,0,1,595.72,330.68Zm0-.87a3.22,3.22,0,0,0,2-.66,3.1,3.1,0,0,0,1.15-1.84v-1.64l-1.27.11a7.48,7.48,0,0,0-3,.7,1.72,1.72,0,0,0-.83,1.58,1.61,1.61,0,0,0,.53,1.32A2.15,2.15,0,0,0,595.75,329.81Z"/><path class="cls-1" d="M606.92,330.71a5.49,5.49,0,0,1-1.4-.17,4.06,4.06,0,0,1-1.2-.54,2.49,2.49,0,0,1-.87-1,3.6,3.6,0,0,1-.32-1.57v-6.56h1.09v6.58a2.85,2.85,0,0,0,.21,1.16,1.54,1.54,0,0,0,.61.72,2.68,2.68,0,0,0,.84.34,5,5,0,0,0,1,.1,4.69,4.69,0,0,0,1-.1,2.59,2.59,0,0,0,.83-.35,1.57,1.57,0,0,0,.59-.72,2.85,2.85,0,0,0,.21-1.15v-6.58h1.09v6.56a3.84,3.84,0,0,1-.21,1.32,2.69,2.69,0,0,1-.56.95,2.92,2.92,0,0,1-.85.61,4,4,0,0,1-1,.34A6.17,6.17,0,0,1,606.92,330.71Z"/><path class="cls-1" d="M616.58,330.69a6.47,6.47,0,0,1-1.75-.23,4.57,4.57,0,0,1-1.29-.54l.16-.91a6,6,0,0,0,2.78.76q2.38,0,2.47-1.77a1.47,1.47,0,0,0-.48-1.16,5.84,5.84,0,0,0-1.92-.88l-.83-.29q-2.26-.69-2.28-2.43a2.33,2.33,0,0,1,.89-1.79,3.55,3.55,0,0,1,2.41-.78,6.91,6.91,0,0,1,2.86.6l-.37.81a7.17,7.17,0,0,0-2.51-.51,2.54,2.54,0,0,0-1.6.46,1.48,1.48,0,0,0-.58,1.23,1.28,1.28,0,0,0,.38,1,4,4,0,0,0,1.52.66l.45.16.36.13a4.93,4.93,0,0,1,2.12,1.1A2.42,2.42,0,0,1,620,328a2.38,2.38,0,0,1-.94,2A4,4,0,0,1,616.58,330.69Z"/><path class="cls-1" d="M626.69,330.68a4,4,0,0,1-3.17-1.34,5.29,5.29,0,0,1-1.17-3.62,5.53,5.53,0,0,1,1.15-3.61,3.78,3.78,0,0,1,3-1.45,3.39,3.39,0,0,1,2.72,1.21,4.86,4.86,0,0,1,1,3.25c0,.05,0,.16,0,.32s0,.27,0,.34H623.5a4.61,4.61,0,0,0,.9,2.94,2.84,2.84,0,0,0,2.32,1.08,5.44,5.44,0,0,0,1.63-.22,8.59,8.59,0,0,0,1.45-.62l.18.82A6.17,6.17,0,0,1,626.69,330.68Zm-3.15-5.77H629a3.83,3.83,0,0,0-.69-2.47,2.32,2.32,0,0,0-1.91-.86,2.45,2.45,0,0,0-2,.91A4.32,4.32,0,0,0,623.54,324.91Z"/><path class="cls-1" d="M637.47,335a4.08,4.08,0,0,1-.75-.07l-.08-.9h.61a3,3,0,0,0,1.66-.38,3.13,3.13,0,0,0,1-1.48l.28-.76.35-1-3.85-9.69h1.14l3.28,8.67.4-1.21q2.42-7.55,2.48-7.54s0,0,0,.09h1.14l-4,11.32a5.77,5.77,0,0,1-1.42,2.17A3.2,3.2,0,0,1,637.47,335Z"/><path class="cls-1" d="M651.1,330.68a4.09,4.09,0,0,1-2.31-.66,4.22,4.22,0,0,1-1.52-1.79,6,6,0,0,1-.52-2.55,6.32,6.32,0,0,1,.3-2,4.78,4.78,0,0,1,.87-1.59,3.9,3.9,0,0,1,1.4-1.05,4.39,4.39,0,0,1,1.85-.38,4,4,0,0,1,3.84,2.45,6.25,6.25,0,0,1,.5,2.55,6.16,6.16,0,0,1-.51,2.57,4.13,4.13,0,0,1-1.52,1.79A4.22,4.22,0,0,1,651.1,330.68Zm.08-.87a2.83,2.83,0,0,0,1.78-.56,3.17,3.17,0,0,0,1.05-1.47,6.18,6.18,0,0,0,.33-2.1,5.14,5.14,0,0,0-.79-3,2.74,2.74,0,0,0-2.41-1.13,2.87,2.87,0,0,0-1.8.57,3.25,3.25,0,0,0-1.09,1.48,6,6,0,0,0-.34,2.11,4.89,4.89,0,0,0,.84,3A2.81,2.81,0,0,0,651.18,329.81Z"/><path class="cls-1" d="M662,330.71a5.5,5.5,0,0,1-1.4-.17,4.06,4.06,0,0,1-1.2-.54,2.49,2.49,0,0,1-.87-1,3.6,3.6,0,0,1-.32-1.57v-6.56h1.09v6.58a2.85,2.85,0,0,0,.21,1.16,1.54,1.54,0,0,0,.61.72,2.68,2.68,0,0,0,.84.34,5,5,0,0,0,1,.1,4.69,4.69,0,0,0,1-.1,2.59,2.59,0,0,0,.83-.35,1.57,1.57,0,0,0,.59-.72,2.85,2.85,0,0,0,.21-1.15v-6.58h1.09v6.56a3.84,3.84,0,0,1-.21,1.32,2.69,2.69,0,0,1-.56.95,2.93,2.93,0,0,1-.85.61,4,4,0,0,1-1,.34A6.16,6.16,0,0,1,662,330.71Z"/><path class="cls-1" d="M484.57,352.27a2.46,2.46,0,0,1-1.78-.55,2.42,2.42,0,0,1-.56-1.79v-6.7h-1.36l.08-.66,1.3-.12.29-2.21.76-.05v2.24h2.81v.8H483.3v6.47a2,2,0,0,0,.33,1.37,1.6,1.6,0,0,0,1.18.35,5.77,5.77,0,0,0,1.35-.2l0,.84A9.1,9.1,0,0,1,484.57,352.27Z"/><path class="cls-1" d="M492.43,352.28a4.09,4.09,0,0,1-2.31-.66,4.22,4.22,0,0,1-1.52-1.79,6,6,0,0,1-.52-2.55,6.32,6.32,0,0,1,.3-2,4.78,4.78,0,0,1,.87-1.59,3.9,3.9,0,0,1,1.4-1.05,4.39,4.39,0,0,1,1.85-.38,4,4,0,0,1,3.84,2.45,6.25,6.25,0,0,1,.5,2.55,6.16,6.16,0,0,1-.51,2.57,4.13,4.13,0,0,1-1.52,1.79A4.22,4.22,0,0,1,492.43,352.28Zm.08-.87a2.83,2.83,0,0,0,1.78-.56,3.17,3.17,0,0,0,1.05-1.47,6.18,6.18,0,0,0,.33-2.1,5.14,5.14,0,0,0-.79-3,2.74,2.74,0,0,0-2.41-1.13,2.87,2.87,0,0,0-1.8.57,3.25,3.25,0,0,0-1.09,1.48,6,6,0,0,0-.34,2.11,4.89,4.89,0,0,0,.84,3A2.81,2.81,0,0,0,492.5,351.41Z"/><path class="cls-1" d="M506.91,352.27a2.46,2.46,0,0,1-1.78-.55,2.42,2.42,0,0,1-.56-1.79V338.7l1.07-.09v11.27a1.76,1.76,0,0,0,.32,1.21,1.29,1.29,0,0,0,1,.33,5.52,5.52,0,0,0,1.32-.2l0,.84A6.15,6.15,0,0,1,506.91,352.27Z"/><path class="cls-1" d="M514.22,352.28a4.09,4.09,0,0,1-2.31-.66,4.22,4.22,0,0,1-1.52-1.79,6,6,0,0,1-.52-2.55,6.32,6.32,0,0,1,.3-2,4.78,4.78,0,0,1,.87-1.59,3.9,3.9,0,0,1,1.4-1.05,4.39,4.39,0,0,1,1.85-.38,4,4,0,0,1,3.84,2.45,6.25,6.25,0,0,1,.5,2.55,6.16,6.16,0,0,1-.51,2.57,4.13,4.13,0,0,1-1.52,1.79A4.22,4.22,0,0,1,514.22,352.28Zm.08-.87a2.83,2.83,0,0,0,1.78-.56,3.17,3.17,0,0,0,1.05-1.47,6.18,6.18,0,0,0,.33-2.1,5.14,5.14,0,0,0-.79-3,2.74,2.74,0,0,0-2.41-1.13,2.87,2.87,0,0,0-1.8.57,3.25,3.25,0,0,0-1.09,1.48,6,6,0,0,0-.34,2.11,4.89,4.89,0,0,0,.84,3A2.81,2.81,0,0,0,514.3,351.41Z"/><path class="cls-1" d="M524.3,352.29a6.47,6.47,0,0,1-1.75-.23,4.57,4.57,0,0,1-1.29-.54l.16-.91a6,6,0,0,0,2.78.76q2.38,0,2.47-1.77a1.47,1.47,0,0,0-.48-1.16,5.83,5.83,0,0,0-1.92-.88l-.83-.29q-2.26-.69-2.28-2.43A2.32,2.32,0,0,1,522,343a3.55,3.55,0,0,1,2.41-.78,6.91,6.91,0,0,1,2.86.6l-.37.81a7.17,7.17,0,0,0-2.51-.51,2.54,2.54,0,0,0-1.6.46,1.48,1.48,0,0,0-.58,1.23,1.28,1.28,0,0,0,.38,1,4,4,0,0,0,1.52.66l.45.16.36.13a4.93,4.93,0,0,1,2.12,1.1,2.42,2.42,0,0,1,.6,1.74,2.38,2.38,0,0,1-.94,2A3.94,3.94,0,0,1,524.3,352.29Z"/><path class="cls-1" d="M534.41,352.28a4,4,0,0,1-3.17-1.34,5.29,5.29,0,0,1-1.17-3.62,5.53,5.53,0,0,1,1.15-3.61,3.78,3.78,0,0,1,3-1.45,3.39,3.39,0,0,1,2.72,1.21,4.86,4.86,0,0,1,1,3.25c0,.05,0,.16,0,.32s0,.27,0,.34h-6.71a4.61,4.61,0,0,0,.9,2.94,2.84,2.84,0,0,0,2.32,1.08,5.44,5.44,0,0,0,1.63-.22,8.59,8.59,0,0,0,1.45-.62l.18.82A6.17,6.17,0,0,1,534.41,352.28Zm-3.15-5.77h5.48a3.83,3.83,0,0,0-.69-2.47,2.32,2.32,0,0,0-1.91-.86,2.45,2.45,0,0,0-2,.91A4.32,4.32,0,0,0,531.26,346.51Z"/><path class="cls-1" d="M548.34,352.27a2.46,2.46,0,0,1-1.78-.55,2.42,2.42,0,0,1-.56-1.79v-6.7h-1.36l.08-.66,1.3-.12.29-2.21.76-.05v2.24h2.81v.8h-2.81v6.47a2,2,0,0,0,.33,1.37,1.6,1.6,0,0,0,1.18.35,5.77,5.77,0,0,0,1.35-.2l0,.84A9.1,9.1,0,0,1,548.34,352.27Z"/><path class="cls-1" d="M552.28,352.07V338.7l1.09-.1v4.85a.34.34,0,0,1,0,.08.55.55,0,0,0,0,.1v.26a3.91,3.91,0,0,1,3.38-1.63q3.14,0,3.14,3.79v6h-1.08v-5.81a4.24,4.24,0,0,0-.5-2.35,2,2,0,0,0-1.77-.73,3.26,3.26,0,0,0-2.09.66,2.76,2.76,0,0,0-1,1.71q0,.35,0,1v5.47Z"/><path class="cls-1" d="M567,352.28a4,4,0,0,1-3.17-1.34,5.29,5.29,0,0,1-1.17-3.62,5.53,5.53,0,0,1,1.15-3.61,3.78,3.78,0,0,1,3-1.45,3.39,3.39,0,0,1,2.72,1.21,4.86,4.86,0,0,1,1,3.25c0,.05,0,.16,0,.32s0,.27,0,.34h-6.71a4.61,4.61,0,0,0,.9,2.94,2.84,2.84,0,0,0,2.32,1.08,5.44,5.44,0,0,0,1.63-.22,8.59,8.59,0,0,0,1.45-.62l.18.82A6.17,6.17,0,0,1,567,352.28Zm-3.15-5.77h5.48a3.83,3.83,0,0,0-.69-2.47,2.32,2.32,0,0,0-1.91-.86,2.45,2.45,0,0,0-2,.91A4.32,4.32,0,0,0,563.86,346.51Z"/><path class="cls-1" d="M579.7,356.55l-.13-1h2a5.33,5.33,0,0,0,1.2-.12,3.58,3.58,0,0,0,.88-.31,1.82,1.82,0,0,0,.61-.53,3.29,3.29,0,0,0,.39-.67,3.54,3.54,0,0,0,.22-.87q.07-.53.09-1t0-1.12,0,0l0-.61a4.11,4.11,0,0,1-1.31,1.29,3.52,3.52,0,0,1-1.85.45,3.89,3.89,0,0,1-1.57-.31,3.38,3.38,0,0,1-1.16-.8,4.66,4.66,0,0,1-.76-1.12,5.43,5.43,0,0,1-.44-1.26,6,6,0,0,1-.13-1.24,8.18,8.18,0,0,1,.13-1.47,5.47,5.47,0,0,1,.44-1.37,4.27,4.27,0,0,1,.79-1.16,3.44,3.44,0,0,1,1.22-.78,4.57,4.57,0,0,1,1.69-.29,3.51,3.51,0,0,1,1.63.37,4,4,0,0,1,1.31,1.16l.11-1.35h1v8.93c0,.39,0,.7,0,.94a9.09,9.09,0,0,1-.11,1,4.35,4.35,0,0,1-.25,1,4.64,4.64,0,0,1-.5.87,2.53,2.53,0,0,1-.8.75,4.92,4.92,0,0,1-1.2.47,6.56,6.56,0,0,1-1.67.19Zm2.22-5.36a3.11,3.11,0,0,0,1.16-.21,2.5,2.5,0,0,0,.86-.54,3.12,3.12,0,0,0,.57-.8,3.63,3.63,0,0,0,.33-.94,5.18,5.18,0,0,0,.1-1v-1a4.85,4.85,0,0,0-.17-1.29,3.8,3.8,0,0,0-.51-1.12,2.41,2.41,0,0,0-1-.81,3.14,3.14,0,0,0-1.41-.3,2.69,2.69,0,0,0-1.17.25,2.45,2.45,0,0,0-.86.66,3.88,3.88,0,0,0-.56,1,5.06,5.06,0,0,0-.32,1.13,7.47,7.47,0,0,0-.09,1.18,6.39,6.39,0,0,0,.08,1,4.64,4.64,0,0,0,.3,1,3.23,3.23,0,0,0,.55.9,2.48,2.48,0,0,0,.88.63A3,3,0,0,0,581.92,351.18Z"/><path class="cls-1" d="M591.82,352.28a3.28,3.28,0,0,1-2.18-.69,2.41,2.41,0,0,1-.82-2,2.56,2.56,0,0,1,.33-1.31,2.46,2.46,0,0,1,.95-.91,5.61,5.61,0,0,1,1.42-.54,11.56,11.56,0,0,1,1.85-.27l1.67-.11v-1.07a2.41,2.41,0,0,0-.5-1.67,2.09,2.09,0,0,0-1.62-.56,5.84,5.84,0,0,0-2.86.73l-.16-.38q-.13-.29-.18-.45a5.08,5.08,0,0,1,1.42-.59,6.59,6.59,0,0,1,1.72-.24,3.47,3.47,0,0,1,2.49.74,3.64,3.64,0,0,1,.76,2.63v6.43h-.85q0-.2-.13-.8t-.08-.62A3.68,3.68,0,0,1,591.82,352.28Zm0-.87a3.22,3.22,0,0,0,2-.66,3.1,3.1,0,0,0,1.15-1.84v-1.64l-1.27.11a7.48,7.48,0,0,0-3,.7,1.72,1.72,0,0,0-.83,1.58,1.61,1.61,0,0,0,.53,1.32A2.14,2.14,0,0,0,591.86,351.41Z"/><path class="cls-1" d="M599.46,352.07q0-8.74,0-9.63h.95l.14,1.48a3.23,3.23,0,0,1,1.26-1.19,3.61,3.61,0,0,1,1.78-.47,2.68,2.68,0,0,1,2.9,1.82,3.46,3.46,0,0,1,3.24-1.82,2.84,2.84,0,0,1,2.32.9,4.15,4.15,0,0,1,.74,2.69v6.22h-1.09v-4.71q0-.67,0-1.12t-.08-1a3.46,3.46,0,0,0-.2-.86,2.94,2.94,0,0,0-.36-.63,1.3,1.3,0,0,0-.56-.44,2.12,2.12,0,0,0-.81-.14,2.8,2.8,0,0,0-1.88.65,3.44,3.44,0,0,0-1.07,1.84q0,.9,0,1.39v5h-1.08v-4.9q0-.75,0-1.3a6.61,6.61,0,0,0-.18-1.08,2.73,2.73,0,0,0-.36-.86,1.65,1.65,0,0,0-.6-.54,1.85,1.85,0,0,0-.89-.2,3.13,3.13,0,0,0-2,.64,2.92,2.92,0,0,0-1,1.74q0,.36,0,1v5.48Z"/><path class="cls-1" d="M619.92,352.28a4,4,0,0,1-3.17-1.34,5.29,5.29,0,0,1-1.17-3.62,5.53,5.53,0,0,1,1.15-3.61,3.78,3.78,0,0,1,3-1.45,3.39,3.39,0,0,1,2.72,1.21,4.86,4.86,0,0,1,1,3.25c0,.05,0,.16,0,.32s0,.27,0,.34h-6.71a4.61,4.61,0,0,0,.9,2.94,2.84,2.84,0,0,0,2.32,1.08,5.44,5.44,0,0,0,1.63-.22,8.59,8.59,0,0,0,1.45-.62l.18.82A6.17,6.17,0,0,1,619.92,352.28Zm-3.15-5.77h5.48a3.83,3.83,0,0,0-.69-2.47,2.32,2.32,0,0,0-1.91-.86,2.45,2.45,0,0,0-2,.91A4.32,4.32,0,0,0,616.77,346.51Z"/><path class="cls-1" d="M627.6,352.14a.88.88,0,0,1-.7-.27,1,1,0,0,1-.24-.64.93.93,0,0,1,.24-.63.88.88,0,0,1,.7-.27.91.91,0,0,1,.72.27.93.93,0,0,1,.24.63,1,1,0,0,1-.24.64A.91.91,0,0,1,627.6,352.14Z"/><path class="cls-1" d="M812,330.47V325.3l-4.36-7.9h1.22l3.79,6.9,3.91-6.9h1.24l-4.65,7.87v5.21Z"/><path class="cls-1" d="M823.07,330.68a4.08,4.08,0,0,1-2.31-.66,4.22,4.22,0,0,1-1.52-1.79,6,6,0,0,1-.52-2.55,6.29,6.29,0,0,1,.3-2,4.77,4.77,0,0,1,.87-1.59,3.9,3.9,0,0,1,1.4-1.05,4.39,4.39,0,0,1,1.85-.38,4,4,0,0,1,3.84,2.45,6.23,6.23,0,0,1,.5,2.55,6.16,6.16,0,0,1-.51,2.57,4.13,4.13,0,0,1-1.52,1.79A4.22,4.22,0,0,1,823.07,330.68Zm.08-.87a2.83,2.83,0,0,0,1.78-.56,3.18,3.18,0,0,0,1.05-1.47,6.2,6.2,0,0,0,.33-2.1,5.14,5.14,0,0,0-.79-3,2.74,2.74,0,0,0-2.41-1.13,2.87,2.87,0,0,0-1.8.57,3.26,3.26,0,0,0-1.08,1.48,6,6,0,0,0-.34,2.11,4.88,4.88,0,0,0,.84,3A2.81,2.81,0,0,0,823.15,329.81Z"/><path class="cls-1" d="M833.92,330.71a5.51,5.51,0,0,1-1.4-.17,4.07,4.07,0,0,1-1.2-.54,2.5,2.5,0,0,1-.87-1,3.61,3.61,0,0,1-.32-1.57v-6.56h1.09v6.58a2.85,2.85,0,0,0,.21,1.16,1.54,1.54,0,0,0,.61.72,2.68,2.68,0,0,0,.84.34,5,5,0,0,0,1,.1,4.69,4.69,0,0,0,1-.1,2.59,2.59,0,0,0,.83-.35,1.56,1.56,0,0,0,.59-.72,2.83,2.83,0,0,0,.21-1.15v-6.58h1.09v6.56a3.84,3.84,0,0,1-.21,1.32,2.69,2.69,0,0,1-.56.95,2.94,2.94,0,0,1-.85.61,4,4,0,0,1-1,.34A6.18,6.18,0,0,1,833.92,330.71Z"/><path class="cls-1" d="M847.16,330.47l-2.69-9.63h1.14l2.22,8.6q2.4-7.72,2.68-8.6h1.34q2.63,8.58,2.65,8.58l2.13-8.58h1.13l-2.65,9.63h-1.27s-.43-1.34-1.24-4.05-1.28-4.3-1.41-4.77q-.11.47-.8,2.68t-1.34,4.18q-.64,2-.65,2Z"/><path class="cls-1" d="M860.08,318.87v-1.48h1.09v1.48Zm0,11.6v-9.63h1.1v9.63Z"/><path class="cls-1" d="M864.6,330.47v-9.63h.95l.15,1.49a3.61,3.61,0,0,1,1.39-1.22,4.11,4.11,0,0,1,1.88-.44,3,3,0,0,1,2.44.91,4.44,4.44,0,0,1,.78,2.92v6h-1.1V324a2.9,2.9,0,0,0-.54-1.85,2.1,2.1,0,0,0-1.64-.56,3.33,3.33,0,0,0-2.14.66,2.82,2.82,0,0,0-1,1.71q0,.41,0,.86v5.65Z"/><path class="cls-1" d="M884.38,330.68a3.66,3.66,0,0,1-3.12-1.61l-.11,1.4h-.91V317.1l1.08-.1v3.24q0,1.49,0,2a3.37,3.37,0,0,1,1.37-1.23,3.9,3.9,0,0,1,1.73-.4,3.66,3.66,0,0,1,3,1.39,5.64,5.64,0,0,1,1.09,3.59,6.89,6.89,0,0,1-.45,2.6,3.79,3.79,0,0,1-3.69,2.44Zm.05-.87a2.72,2.72,0,0,0,1.4-.35,2.37,2.37,0,0,0,.91-.95,4.85,4.85,0,0,0,.47-1.3,7.47,7.47,0,0,0,.14-1.52,8.54,8.54,0,0,0-.08-1.23,5.07,5.07,0,0,0-.3-1.12,3.39,3.39,0,0,0-.54-.94,2.33,2.33,0,0,0-.83-.62,2.77,2.77,0,0,0-1.17-.24,2.71,2.71,0,0,0-2.33,1.09,5.13,5.13,0,0,0-.8,3.11,7.18,7.18,0,0,0,.17,1.65,3.9,3.9,0,0,0,.54,1.28,2.4,2.4,0,0,0,1,.84A3.27,3.27,0,0,0,884.44,329.81Z"/><path class="cls-1" d="M890.88,335a4.08,4.08,0,0,1-.75-.07l-.08-.9h.61a3,3,0,0,0,1.66-.38,3.13,3.13,0,0,0,1-1.48l.28-.76.35-1-3.85-9.69h1.14l3.28,8.67.4-1.21q2.42-7.55,2.48-7.54s0,0,0,.09h1.14l-4,11.32a5.77,5.77,0,0,1-1.42,2.17A3.2,3.2,0,0,1,890.88,335Z"/><path class="cls-1" d="M909.46,330.68A4.27,4.27,0,0,1,907,330a4.2,4.2,0,0,1-1.53-1.79,5.87,5.87,0,0,1-.5-2.46,6.24,6.24,0,0,1,.3-2,5.25,5.25,0,0,1,.85-1.62,3.86,3.86,0,0,1,1.42-1.11,4.47,4.47,0,0,1,1.93-.41,5.34,5.34,0,0,1,1.38.18,3,3,0,0,1,1,.44l-.34.82a4.3,4.3,0,0,0-2.14-.51,2.85,2.85,0,0,0-2.38,1.14,4.81,4.81,0,0,0-.88,3,4.57,4.57,0,0,0,.88,2.91,2.87,2.87,0,0,0,2.39,1.11,5.71,5.71,0,0,0,2.27-.53l.17.78a3.06,3.06,0,0,1-1.07.48A5.18,5.18,0,0,1,909.46,330.68Z"/><path class="cls-1" d="M917.07,330.67a2.46,2.46,0,0,1-1.78-.55,2.42,2.42,0,0,1-.56-1.79V317.1l1.07-.09v11.27a1.76,1.76,0,0,0,.32,1.21,1.29,1.29,0,0,0,1,.33,5.52,5.52,0,0,0,1.32-.2l0,.84A6.15,6.15,0,0,1,917.07,330.67Z"/><path class="cls-1" d="M920.58,318.87v-1.48h1.09v1.48Zm0,11.6v-9.63h1.1v9.63Z"/><path class="cls-1" d="M929.12,330.68a4.27,4.27,0,0,1-2.43-.69,4.2,4.2,0,0,1-1.53-1.79,5.87,5.87,0,0,1-.5-2.46,6.24,6.24,0,0,1,.3-2,5.25,5.25,0,0,1,.85-1.62,3.86,3.86,0,0,1,1.42-1.11,4.48,4.48,0,0,1,1.93-.41,5.33,5.33,0,0,1,1.38.18,3,3,0,0,1,1,.44l-.34.82a4.3,4.3,0,0,0-2.14-.51,2.85,2.85,0,0,0-2.38,1.14,4.81,4.81,0,0,0-.88,3,4.57,4.57,0,0,0,.87,2.91,2.87,2.87,0,0,0,2.39,1.11,5.71,5.71,0,0,0,2.27-.53l.17.78a3.06,3.06,0,0,1-1.07.48A5.18,5.18,0,0,1,929.12,330.68Z"/><path class="cls-1" d="M934.32,330.47V317.1l1.08-.09v8.47l.56-.62.54-.6,3.33-3.42h1.47l-4,4,4.32,5.61h-1.38l-3.68-5-1.12,1v4Z"/><path class="cls-1" d="M943.8,318.87v-1.48h1.09v1.48Zm0,11.6v-9.63h1.1v9.63Z"/><path class="cls-1" d="M948.32,330.47v-9.63h.95l.15,1.49a3.61,3.61,0,0,1,1.39-1.22,4.12,4.12,0,0,1,1.88-.44,3,3,0,0,1,2.44.91,4.44,4.44,0,0,1,.78,2.92v6h-1.1V324a2.9,2.9,0,0,0-.54-1.85,2.1,2.1,0,0,0-1.64-.56,3.34,3.34,0,0,0-2.14.66,2.82,2.82,0,0,0-1,1.71q0,.41,0,.86v5.65Z"/><path class="cls-1" d="M960.65,334.95l-.13-1h2a5.33,5.33,0,0,0,1.2-.12,3.57,3.57,0,0,0,.87-.31,1.82,1.82,0,0,0,.61-.53,3.29,3.29,0,0,0,.39-.67,3.54,3.54,0,0,0,.22-.87q.07-.53.09-1t0-1.12,0,0l0-.61a4.1,4.1,0,0,1-1.31,1.29,3.52,3.52,0,0,1-1.85.45,3.9,3.9,0,0,1-1.57-.31,3.38,3.38,0,0,1-1.16-.8,4.66,4.66,0,0,1-.76-1.12,5.43,5.43,0,0,1-.44-1.26,6,6,0,0,1-.13-1.24,8.18,8.18,0,0,1,.13-1.47,5.47,5.47,0,0,1,.44-1.37,4.27,4.27,0,0,1,.79-1.16,3.45,3.45,0,0,1,1.22-.78,4.57,4.57,0,0,1,1.69-.29,3.51,3.51,0,0,1,1.63.37,4,4,0,0,1,1.31,1.16l.11-1.35h1v8.93c0,.39,0,.7,0,.94a9.09,9.09,0,0,1-.11,1,4.35,4.35,0,0,1-.25,1,4.63,4.63,0,0,1-.5.87,2.53,2.53,0,0,1-.8.75,4.92,4.92,0,0,1-1.2.47,6.55,6.55,0,0,1-1.67.19Zm2.22-5.36a3.11,3.11,0,0,0,1.16-.21,2.5,2.5,0,0,0,.86-.54,3.12,3.12,0,0,0,.57-.8,3.64,3.64,0,0,0,.33-.94,5.18,5.18,0,0,0,.1-1v-1a4.85,4.85,0,0,0-.17-1.29,3.8,3.8,0,0,0-.51-1.12,2.41,2.41,0,0,0-1-.81,3.14,3.14,0,0,0-1.41-.3,2.69,2.69,0,0,0-1.17.25,2.44,2.44,0,0,0-.86.66,3.88,3.88,0,0,0-.56,1,5.06,5.06,0,0,0-.32,1.13,7.47,7.47,0,0,0-.09,1.18,6.39,6.39,0,0,0,.08,1,4.64,4.64,0,0,0,.3,1,3.23,3.23,0,0,0,.55.9,2.48,2.48,0,0,0,.88.63A3,3,0,0,0,962.87,329.58Z"/><path class="cls-1" d="M977.56,330.68a3.28,3.28,0,0,1-2.18-.69,2.41,2.41,0,0,1-.82-2,2.56,2.56,0,0,1,.33-1.31,2.46,2.46,0,0,1,.94-.91,5.62,5.62,0,0,1,1.42-.54,11.54,11.54,0,0,1,1.85-.27l1.67-.11v-1.07a2.4,2.4,0,0,0-.51-1.67,2.09,2.09,0,0,0-1.62-.56,5.84,5.84,0,0,0-2.86.73l-.16-.38c-.08-.2-.14-.35-.18-.45a5.08,5.08,0,0,1,1.42-.59,6.59,6.59,0,0,1,1.72-.24,3.47,3.47,0,0,1,2.49.74,3.64,3.64,0,0,1,.76,2.63v6.43H981c0-.13-.07-.4-.13-.8s-.08-.6-.08-.62A3.68,3.68,0,0,1,977.56,330.68Zm0-.87a3.22,3.22,0,0,0,2-.66,3.1,3.1,0,0,0,1.15-1.84v-1.64l-1.27.11a7.48,7.48,0,0,0-3,.7,1.72,1.72,0,0,0-.83,1.58,1.61,1.61,0,0,0,.53,1.32A2.15,2.15,0,0,0,977.59,329.81Z"/><path class="cls-1" d="M987.59,330.67a2.46,2.46,0,0,1-1.78-.55,2.42,2.42,0,0,1-.56-1.79V317.1l1.07-.09v11.27a1.76,1.76,0,0,0,.32,1.21,1.29,1.29,0,0,0,1,.33,5.52,5.52,0,0,0,1.32-.2l0,.84A6.15,6.15,0,0,1,987.59,330.67Z"/><path class="cls-1" d="M993.42,330.67a2.46,2.46,0,0,1-1.78-.55,2.42,2.42,0,0,1-.56-1.79V317.1l1.07-.09v11.27a1.76,1.76,0,0,0,.32,1.21,1.29,1.29,0,0,0,1,.33,5.52,5.52,0,0,0,1.32-.2l0,.84A6.15,6.15,0,0,1,993.42,330.67Z"/><path class="cls-1" d="M1004.42,330.69a6.47,6.47,0,0,1-1.75-.23,4.57,4.57,0,0,1-1.29-.54l.16-.91a6,6,0,0,0,2.78.76q2.38,0,2.47-1.77a1.47,1.47,0,0,0-.48-1.16,5.85,5.85,0,0,0-1.92-.88l-.83-.29q-2.26-.69-2.28-2.43a2.33,2.33,0,0,1,.89-1.79,3.55,3.55,0,0,1,2.41-.78,6.91,6.91,0,0,1,2.86.6l-.37.81a7.17,7.17,0,0,0-2.51-.51,2.54,2.54,0,0,0-1.6.46,1.48,1.48,0,0,0-.58,1.23,1.28,1.28,0,0,0,.38,1,4,4,0,0,0,1.52.66l.45.16.37.13a4.94,4.94,0,0,1,2.12,1.1,2.43,2.43,0,0,1,.6,1.74,2.38,2.38,0,0,1-.95,2A3.94,3.94,0,0,1,1004.42,330.69Z"/><path class="cls-1" d="M1013.2,330.68A3.28,3.28,0,0,1,1011,330a2.42,2.42,0,0,1-.82-2,2.56,2.56,0,0,1,.33-1.31,2.46,2.46,0,0,1,.94-.91,5.61,5.61,0,0,1,1.42-.54,11.56,11.56,0,0,1,1.85-.27l1.67-.11v-1.07a2.41,2.41,0,0,0-.5-1.67,2.09,2.09,0,0,0-1.62-.56,5.83,5.83,0,0,0-2.86.73l-.16-.38q-.13-.29-.18-.45a5.08,5.08,0,0,1,1.42-.59,6.59,6.59,0,0,1,1.72-.24,3.47,3.47,0,0,1,2.49.74,3.64,3.64,0,0,1,.76,2.63v6.43h-.85q0-.2-.13-.8t-.08-.62A3.68,3.68,0,0,1,1013.2,330.68Zm0-.87a3.22,3.22,0,0,0,2-.66,3.1,3.1,0,0,0,1.15-1.84v-1.64l-1.28.11a7.48,7.48,0,0,0-3,.7,1.72,1.72,0,0,0-.84,1.58,1.61,1.61,0,0,0,.53,1.32A2.15,2.15,0,0,0,1013.24,329.81Z"/><path class="cls-1" d="M1021.42,330.47v-8.83h-1.58l.07-.68,1.51-.12v-.36a4.54,4.54,0,0,1,.66-2.76,2.4,2.4,0,0,1,2-.86,11.32,11.32,0,0,1,1.34.13l-.08.72q-.84-.1-1.14-.1a1.43,1.43,0,0,0-1.37.65,5,5,0,0,0-.37,2.27v.31h2.35v.8h-2.35v8.83Z"/><path class="cls-1" d="M1030.91,330.68a4,4,0,0,1-3.17-1.34,5.3,5.3,0,0,1-1.17-3.62,5.53,5.53,0,0,1,1.15-3.61,3.78,3.78,0,0,1,3-1.45,3.39,3.39,0,0,1,2.72,1.21,4.86,4.86,0,0,1,1,3.25c0,.05,0,.16,0,.32s0,.27,0,.34h-6.71a4.61,4.61,0,0,0,.9,2.94,2.84,2.84,0,0,0,2.32,1.08,5.44,5.44,0,0,0,1.63-.22A8.59,8.59,0,0,0,1034,329l.18.82A6.17,6.17,0,0,1,1030.91,330.68Zm-3.15-5.77h5.48a3.83,3.83,0,0,0-.69-2.47,2.32,2.32,0,0,0-1.91-.86,2.45,2.45,0,0,0-2,.91A4.32,4.32,0,0,0,1027.76,324.91Z"/><path class="cls-1" d="M1044.84,330.67a2.46,2.46,0,0,1-1.78-.55,2.42,2.42,0,0,1-.56-1.79v-6.7h-1.36l.08-.66,1.3-.12.29-2.21.76-.05v2.24h2.81v.8h-2.81v6.47a2,2,0,0,0,.33,1.37,1.6,1.6,0,0,0,1.18.35,5.77,5.77,0,0,0,1.35-.2l0,.84A9.11,9.11,0,0,1,1044.84,330.67Z"/><path class="cls-1" d="M1048.9,318.87v-1.48H1050v1.48Zm0,11.6v-9.63h1.1v9.63Z"/><path class="cls-1" d="M1055.84,330.67a2.46,2.46,0,0,1-1.78-.55,2.42,2.42,0,0,1-.56-1.79V317.1l1.07-.09v11.27a1.75,1.75,0,0,0,.32,1.21,1.29,1.29,0,0,0,1,.33,5.52,5.52,0,0,0,1.32-.2l0,.84A6.15,6.15,0,0,1,1055.84,330.67Z"/><path class="cls-1" d="M1063.15,330.68a4,4,0,0,1-3.17-1.34,5.29,5.29,0,0,1-1.17-3.62,5.53,5.53,0,0,1,1.15-3.61,3.78,3.78,0,0,1,3-1.45,3.39,3.39,0,0,1,2.72,1.21,4.86,4.86,0,0,1,1,3.25c0,.05,0,.16,0,.32s0,.27,0,.34H1060a4.61,4.61,0,0,0,.9,2.94,2.84,2.84,0,0,0,2.32,1.08,5.44,5.44,0,0,0,1.63-.22,8.59,8.59,0,0,0,1.45-.62l.18.82A6.16,6.16,0,0,1,1063.15,330.68Zm-3.15-5.77h5.48a3.83,3.83,0,0,0-.7-2.47,2.32,2.32,0,0,0-1.91-.86,2.45,2.45,0,0,0-2,.91A4.32,4.32,0,0,0,1060,324.91Z"/><path class="cls-1" d="M1072.38,330.69a6.48,6.48,0,0,1-1.75-.23,4.56,4.56,0,0,1-1.29-.54l.16-.91a6,6,0,0,0,2.78.76q2.38,0,2.47-1.77a1.47,1.47,0,0,0-.48-1.16,5.83,5.83,0,0,0-1.92-.88l-.84-.29q-2.26-.69-2.28-2.43a2.32,2.32,0,0,1,.89-1.79,3.55,3.55,0,0,1,2.41-.78,6.91,6.91,0,0,1,2.86.6l-.37.81a7.17,7.17,0,0,0-2.51-.51,2.54,2.54,0,0,0-1.6.46,1.48,1.48,0,0,0-.58,1.23,1.28,1.28,0,0,0,.38,1,4,4,0,0,0,1.52.66l.45.16.36.13a4.93,4.93,0,0,1,2.12,1.1,2.42,2.42,0,0,1,.6,1.74,2.38,2.38,0,0,1-.94,2A3.94,3.94,0,0,1,1072.38,330.69Z"/><path class="cls-1" d="M827.35,352.28a3.28,3.28,0,0,1-2.18-.69,2.41,2.41,0,0,1-.82-2,2.56,2.56,0,0,1,.33-1.31,2.46,2.46,0,0,1,.94-.91,5.62,5.62,0,0,1,1.42-.54,11.54,11.54,0,0,1,1.85-.27l1.67-.11v-1.07a2.4,2.4,0,0,0-.51-1.67,2.09,2.09,0,0,0-1.62-.56,5.84,5.84,0,0,0-2.86.73l-.16-.38c-.08-.2-.14-.35-.18-.45a5.08,5.08,0,0,1,1.42-.59,6.59,6.59,0,0,1,1.72-.24,3.47,3.47,0,0,1,2.49.74,3.64,3.64,0,0,1,.76,2.63v6.43h-.85c0-.13-.07-.4-.13-.8s-.08-.6-.08-.62A3.68,3.68,0,0,1,827.35,352.28Zm0-.87a3.22,3.22,0,0,0,2-.66,3.1,3.1,0,0,0,1.15-1.84v-1.64l-1.27.11a7.48,7.48,0,0,0-3,.7,1.72,1.72,0,0,0-.83,1.58A1.61,1.61,0,0,0,826,351,2.15,2.15,0,0,0,827.38,351.41Z"/><path class="cls-1" d="M835,352.07v-9.63h.95l.15,1.49a3.61,3.61,0,0,1,1.39-1.22,4.12,4.12,0,0,1,1.88-.44,3,3,0,0,1,2.44.91,4.44,4.44,0,0,1,.78,2.92v6h-1.1V345.6a2.9,2.9,0,0,0-.54-1.85,2.1,2.1,0,0,0-1.64-.56,3.34,3.34,0,0,0-2.14.66,2.82,2.82,0,0,0-1,1.71q0,.41,0,.86v5.65Z"/><path class="cls-1" d="M849.44,352.27a3.64,3.64,0,0,1-3-1.34,5.73,5.73,0,0,1-1.08-3.69,5.57,5.57,0,0,1,1.11-3.6,3.57,3.57,0,0,1,2.93-1.38,4.49,4.49,0,0,1,1.79.39,2.79,2.79,0,0,1,1.36,1.2V338.7l1.05-.1v13.46h-.9l-.16-1.45a3.22,3.22,0,0,1-1.36,1.24A4,4,0,0,1,849.44,352.27Zm0-.86a3.25,3.25,0,0,0,1.43-.3,2.47,2.47,0,0,0,1-.84,3.94,3.94,0,0,0,.55-1.25,6.35,6.35,0,0,0,.18-1.57q0-4.3-3.16-4.3a2.43,2.43,0,0,0-1.32.36,2.55,2.55,0,0,0-.9,1,5,5,0,0,0-.49,1.31,6.81,6.81,0,0,0-.16,1.49,7.91,7.91,0,0,0,.1,1.27,5.16,5.16,0,0,0,.32,1.13,3.37,3.37,0,0,0,.54.92,2.31,2.31,0,0,0,.82.61A2.66,2.66,0,0,0,849.41,351.41Z"/><path class="cls-1" d="M864.28,352.28a3.28,3.28,0,0,1-2.18-.69,2.41,2.41,0,0,1-.82-2,2.56,2.56,0,0,1,.33-1.31,2.46,2.46,0,0,1,.94-.91,5.62,5.62,0,0,1,1.42-.54,11.54,11.54,0,0,1,1.85-.27l1.67-.11v-1.07a2.4,2.4,0,0,0-.51-1.67,2.09,2.09,0,0,0-1.62-.56,5.84,5.84,0,0,0-2.86.73l-.16-.38c-.08-.2-.14-.35-.18-.45a5.08,5.08,0,0,1,1.42-.59,6.59,6.59,0,0,1,1.72-.24,3.47,3.47,0,0,1,2.49.74,3.64,3.64,0,0,1,.76,2.63v6.43h-.85c0-.13-.07-.4-.13-.8s-.08-.6-.08-.62A3.68,3.68,0,0,1,864.28,352.28Zm0-.87a3.22,3.22,0,0,0,2-.66,3.1,3.1,0,0,0,1.15-1.84v-1.64l-1.27.11a7.48,7.48,0,0,0-3,.7,1.72,1.72,0,0,0-.83,1.58,1.61,1.61,0,0,0,.53,1.32A2.15,2.15,0,0,0,864.32,351.41Z"/><path class="cls-1" d="M874.28,352.07l-3.67-9.63h1.17l2.23,6.07q.18.57.42,1.22t.39,1l.15.36a12.24,12.24,0,0,1,.44-1.21q.27-.65.49-1.35t.86-2.28q.62-1.52,1.36-3.82h1.17l-3.74,9.63Z"/><path class="cls-1" d="M885.22,352.28a4.09,4.09,0,0,1-2.31-.66,4.22,4.22,0,0,1-1.52-1.79,6,6,0,0,1-.52-2.55,6.32,6.32,0,0,1,.3-2,4.79,4.79,0,0,1,.87-1.59,3.9,3.9,0,0,1,1.4-1.05,4.39,4.39,0,0,1,1.86-.38,4,4,0,0,1,3.84,2.45,6.25,6.25,0,0,1,.5,2.55,6.16,6.16,0,0,1-.51,2.57,4.12,4.12,0,0,1-1.52,1.79A4.22,4.22,0,0,1,885.22,352.28Zm.08-.87a2.83,2.83,0,0,0,1.78-.56,3.17,3.17,0,0,0,1.05-1.47,6.18,6.18,0,0,0,.33-2.1,5.14,5.14,0,0,0-.79-3,2.74,2.74,0,0,0-2.41-1.13,2.87,2.87,0,0,0-1.8.57,3.25,3.25,0,0,0-1.09,1.48,6,6,0,0,0-.34,2.11,4.89,4.89,0,0,0,.84,3A2.81,2.81,0,0,0,885.3,351.41Z"/><path class="cls-1" d="M892.6,340.47V339h1.09v1.48Zm0,11.6v-9.63h1.1v9.63Z"/><path class="cls-1" d="M900.75,352.27a3.64,3.64,0,0,1-3-1.34,5.73,5.73,0,0,1-1.08-3.69,5.57,5.57,0,0,1,1.11-3.6,3.58,3.58,0,0,1,2.93-1.38,4.49,4.49,0,0,1,1.79.39,2.79,2.79,0,0,1,1.36,1.2V338.7l1.05-.1v13.46H904l-.16-1.45a3.22,3.22,0,0,1-1.36,1.24A4,4,0,0,1,900.75,352.27Zm0-.86a3.24,3.24,0,0,0,1.43-.3,2.47,2.47,0,0,0,1-.84,3.92,3.92,0,0,0,.55-1.25,6.3,6.3,0,0,0,.18-1.57q0-4.3-3.16-4.3a2.43,2.43,0,0,0-1.32.36,2.56,2.56,0,0,0-.9,1,5,5,0,0,0-.49,1.31,6.81,6.81,0,0,0-.16,1.49,7.92,7.92,0,0,0,.1,1.27,5.16,5.16,0,0,0,.32,1.13,3.37,3.37,0,0,0,.54.92,2.32,2.32,0,0,0,.82.61A2.66,2.66,0,0,0,900.73,351.41Z"/><path class="cls-1" d="M908.35,340.47V339h1.09v1.48Zm0,11.6v-9.63h1.1v9.63Z"/><path class="cls-1" d="M912.87,352.07v-9.63h.95l.15,1.49a3.62,3.62,0,0,1,1.39-1.22,4.12,4.12,0,0,1,1.89-.44,3,3,0,0,1,2.44.91,4.44,4.44,0,0,1,.78,2.92v6h-1.1V345.6a2.9,2.9,0,0,0-.54-1.85,2.1,2.1,0,0,0-1.64-.56,3.34,3.34,0,0,0-2.14.66,2.83,2.83,0,0,0-1,1.71q0,.41,0,.86v5.65Z"/><path class="cls-1" d="M925.2,356.55l-.13-1h2a5.33,5.33,0,0,0,1.2-.12,3.59,3.59,0,0,0,.88-.31,1.82,1.82,0,0,0,.61-.53,3.26,3.26,0,0,0,.39-.67,3.59,3.59,0,0,0,.22-.87c0-.35.08-.68.09-1s0-.67,0-1.12q0,.1,0,0l0-.61a4.11,4.11,0,0,1-1.31,1.29,3.52,3.52,0,0,1-1.85.45,3.89,3.89,0,0,1-1.57-.31,3.36,3.36,0,0,1-1.16-.8,4.63,4.63,0,0,1-.76-1.12,5.43,5.43,0,0,1-.44-1.26,6,6,0,0,1-.13-1.24,8.27,8.27,0,0,1,.13-1.47,5.51,5.51,0,0,1,.44-1.37,4.27,4.27,0,0,1,.79-1.16,3.44,3.44,0,0,1,1.22-.78,4.57,4.57,0,0,1,1.69-.29,3.51,3.51,0,0,1,1.63.37,4,4,0,0,1,1.31,1.16l.11-1.35h1v8.93c0,.39,0,.7,0,.94a9.63,9.63,0,0,1-.11,1,4.34,4.34,0,0,1-.26,1,4.58,4.58,0,0,1-.5.87,2.52,2.52,0,0,1-.8.75,4.91,4.91,0,0,1-1.2.47,6.56,6.56,0,0,1-1.67.19Zm2.22-5.36a3.11,3.11,0,0,0,1.16-.21,2.51,2.51,0,0,0,.86-.54,3.11,3.11,0,0,0,.57-.8,3.6,3.6,0,0,0,.33-.94,5.18,5.18,0,0,0,.1-1v-1a4.85,4.85,0,0,0-.17-1.29,3.82,3.82,0,0,0-.51-1.12,2.42,2.42,0,0,0-1-.81,3.14,3.14,0,0,0-1.41-.3,2.69,2.69,0,0,0-1.17.25,2.44,2.44,0,0,0-.86.66,3.88,3.88,0,0,0-.56,1,5,5,0,0,0-.32,1.13,7.36,7.36,0,0,0-.09,1.18,6.5,6.5,0,0,0,.08,1,4.75,4.75,0,0,0,.3,1,3.26,3.26,0,0,0,.55.9,2.48,2.48,0,0,0,.87.63A3,3,0,0,0,927.42,351.18Z"/><path class="cls-1" d="M942.1,352.28a3.28,3.28,0,0,1-2.18-.69,2.42,2.42,0,0,1-.82-2,2.56,2.56,0,0,1,.33-1.31,2.46,2.46,0,0,1,.94-.91,5.61,5.61,0,0,1,1.42-.54,11.56,11.56,0,0,1,1.85-.27l1.67-.11v-1.07a2.41,2.41,0,0,0-.5-1.67,2.09,2.09,0,0,0-1.62-.56,5.83,5.83,0,0,0-2.86.73l-.16-.38q-.13-.29-.18-.45a5.08,5.08,0,0,1,1.42-.59,6.59,6.59,0,0,1,1.72-.24,3.47,3.47,0,0,1,2.49.74,3.64,3.64,0,0,1,.76,2.63v6.43h-.85q0-.2-.13-.8t-.08-.62A3.68,3.68,0,0,1,942.1,352.28Zm0-.87a3.22,3.22,0,0,0,2-.66,3.1,3.1,0,0,0,1.15-1.84v-1.64l-1.28.11a7.48,7.48,0,0,0-3,.7,1.72,1.72,0,0,0-.84,1.58,1.61,1.61,0,0,0,.53,1.32A2.15,2.15,0,0,0,942.14,351.41Z"/><path class="cls-1" d="M952.14,352.27a2.46,2.46,0,0,1-1.78-.55,2.42,2.42,0,0,1-.56-1.79V338.7l1.07-.09v11.27a1.75,1.75,0,0,0,.32,1.21,1.29,1.29,0,0,0,1,.33,5.52,5.52,0,0,0,1.32-.2l0,.84A6.15,6.15,0,0,1,952.14,352.27Z"/><path class="cls-1" d="M958,352.27a2.46,2.46,0,0,1-1.78-.55,2.42,2.42,0,0,1-.56-1.79V338.7l1.07-.09v11.27a1.75,1.75,0,0,0,.32,1.21,1.29,1.29,0,0,0,1,.33,5.52,5.52,0,0,0,1.32-.2l0,.84A6.15,6.15,0,0,1,958,352.27Z"/><path class="cls-1" d="M970.31,352.28a3.65,3.65,0,0,1-3.12-1.61l-.11,1.4h-.91V338.7l1.08-.1v3.24q0,1.49,0,2a3.37,3.37,0,0,1,1.37-1.23,3.89,3.89,0,0,1,1.73-.4,3.65,3.65,0,0,1,3,1.39,5.64,5.64,0,0,1,1.09,3.59,6.91,6.91,0,0,1-.45,2.6,3.79,3.79,0,0,1-3.69,2.44Zm.05-.87a2.73,2.73,0,0,0,1.4-.35,2.39,2.39,0,0,0,.91-.95,4.85,4.85,0,0,0,.46-1.3,7.4,7.4,0,0,0,.15-1.52,8.69,8.69,0,0,0-.08-1.23,5.17,5.17,0,0,0-.3-1.12,3.4,3.4,0,0,0-.54-.94,2.33,2.33,0,0,0-.83-.62,2.78,2.78,0,0,0-1.17-.24,2.7,2.7,0,0,0-2.32,1.09,5.13,5.13,0,0,0-.8,3.11,7.24,7.24,0,0,0,.17,1.65,3.9,3.9,0,0,0,.54,1.28,2.39,2.39,0,0,0,1,.84A3.27,3.27,0,0,0,970.36,351.41Z"/><path class="cls-1" d="M981.22,352.28a4.09,4.09,0,0,1-2.31-.66,4.22,4.22,0,0,1-1.52-1.79,6,6,0,0,1-.52-2.55,6.35,6.35,0,0,1,.3-2,4.8,4.8,0,0,1,.87-1.59,3.9,3.9,0,0,1,1.4-1.05,4.39,4.39,0,0,1,1.85-.38,4,4,0,0,1,3.84,2.45,6.26,6.26,0,0,1,.5,2.55,6.16,6.16,0,0,1-.51,2.57,4.13,4.13,0,0,1-1.52,1.79A4.22,4.22,0,0,1,981.22,352.28Zm.08-.87a2.83,2.83,0,0,0,1.78-.56,3.15,3.15,0,0,0,1.05-1.47,6.15,6.15,0,0,0,.33-2.1,5.14,5.14,0,0,0-.79-3,2.74,2.74,0,0,0-2.41-1.13,2.87,2.87,0,0,0-1.8.57,3.25,3.25,0,0,0-1.09,1.48,6,6,0,0,0-.34,2.11,4.89,4.89,0,0,0,.84,3A2.81,2.81,0,0,0,981.3,351.41Z"/><path class="cls-1" d="M988.51,352.07q0-8.74,0-9.63h.95l.14,1.48a3.23,3.23,0,0,1,1.26-1.19,3.61,3.61,0,0,1,1.78-.47,2.68,2.68,0,0,1,2.9,1.82,3.46,3.46,0,0,1,3.24-1.82,2.84,2.84,0,0,1,2.33.9,4.15,4.15,0,0,1,.74,2.69v6.22h-1.09v-4.71q0-.67,0-1.12t-.08-1a3.46,3.46,0,0,0-.2-.86,2.94,2.94,0,0,0-.36-.63,1.3,1.3,0,0,0-.56-.44,2.12,2.12,0,0,0-.81-.14,2.8,2.8,0,0,0-1.88.65,3.44,3.44,0,0,0-1.07,1.84q0,.9,0,1.39v5h-1.08v-4.9q0-.75,0-1.3a6.61,6.61,0,0,0-.18-1.08,2.73,2.73,0,0,0-.36-.86,1.65,1.65,0,0,0-.6-.54,1.85,1.85,0,0,0-.89-.2,3.12,3.12,0,0,0-2,.64,2.93,2.93,0,0,0-1,1.74q0,.36,0,1v5.48Z"/><path class="cls-1" d="M1009.22,352.28a3.66,3.66,0,0,1-3.12-1.61l-.11,1.4h-.91V338.7l1.08-.1v3.24q0,1.49,0,2a3.37,3.37,0,0,1,1.37-1.23,3.9,3.9,0,0,1,1.73-.4,3.66,3.66,0,0,1,3,1.39,5.64,5.64,0,0,1,1.09,3.59,6.89,6.89,0,0,1-.45,2.6,3.79,3.79,0,0,1-3.69,2.44Zm.05-.87a2.72,2.72,0,0,0,1.4-.35,2.37,2.37,0,0,0,.91-.95,4.85,4.85,0,0,0,.47-1.3,7.47,7.47,0,0,0,.14-1.52,8.54,8.54,0,0,0-.08-1.23,5.07,5.07,0,0,0-.3-1.12,3.39,3.39,0,0,0-.54-.94,2.33,2.33,0,0,0-.83-.62,2.77,2.77,0,0,0-1.17-.24,2.71,2.71,0,0,0-2.33,1.09,5.13,5.13,0,0,0-.8,3.11,7.18,7.18,0,0,0,.17,1.65,3.9,3.9,0,0,0,.54,1.28,2.4,2.4,0,0,0,1,.84A3.27,3.27,0,0,0,1009.27,351.41Z"/><path class="cls-1" d="M1023.73,352.27a2.46,2.46,0,0,1-1.78-.55,2.42,2.42,0,0,1-.56-1.79v-6.7H1020l.08-.66,1.3-.12.29-2.21.76-.05v2.24h2.81v.8h-2.81v6.47a2,2,0,0,0,.33,1.37,1.6,1.6,0,0,0,1.18.35,5.77,5.77,0,0,0,1.35-.2l0,.84A9.1,9.1,0,0,1,1023.73,352.27Z"/><path class="cls-1" d="M1027.79,340.47V339h1.09v1.48Zm0,11.6v-9.63h1.1v9.63Z"/><path class="cls-1" d="M1034.73,352.27a2.46,2.46,0,0,1-1.78-.55,2.42,2.42,0,0,1-.56-1.79V338.7l1.07-.09v11.27a1.76,1.76,0,0,0,.32,1.21,1.29,1.29,0,0,0,1,.33,5.52,5.52,0,0,0,1.32-.2l0,.84A6.15,6.15,0,0,1,1034.73,352.27Z"/><path class="cls-1" d="M1042,352.28a4,4,0,0,1-3.17-1.34,5.29,5.29,0,0,1-1.17-3.62,5.54,5.54,0,0,1,1.15-3.61,3.78,3.78,0,0,1,3-1.45,3.39,3.39,0,0,1,2.72,1.21,4.86,4.86,0,0,1,1,3.25c0,.05,0,.16,0,.32s0,.27,0,.34h-6.71a4.61,4.61,0,0,0,.9,2.94,2.84,2.84,0,0,0,2.32,1.08,5.44,5.44,0,0,0,1.63-.22,8.59,8.59,0,0,0,1.45-.62l.18.82A6.17,6.17,0,0,1,1042,352.28Zm-3.15-5.77h5.48a3.83,3.83,0,0,0-.69-2.47,2.32,2.32,0,0,0-1.91-.86,2.45,2.45,0,0,0-2,.91A4.32,4.32,0,0,0,1038.89,346.51Z"/><path class="cls-1" d="M1051.27,352.29a6.46,6.46,0,0,1-1.75-.23,4.58,4.58,0,0,1-1.29-.54l.16-.91a6,6,0,0,0,2.78.76q2.38,0,2.47-1.77a1.47,1.47,0,0,0-.48-1.16,5.84,5.84,0,0,0-1.92-.88l-.83-.29q-2.26-.69-2.28-2.43A2.33,2.33,0,0,1,1049,343a3.55,3.55,0,0,1,2.41-.78,6.92,6.92,0,0,1,2.86.6l-.37.81a7.17,7.17,0,0,0-2.51-.51,2.54,2.54,0,0,0-1.6.46,1.48,1.48,0,0,0-.58,1.23,1.28,1.28,0,0,0,.38,1,4,4,0,0,0,1.52.66l.45.16.37.13a4.93,4.93,0,0,1,2.12,1.1,2.42,2.42,0,0,1,.6,1.74,2.38,2.38,0,0,1-.95,2A4,4,0,0,1,1051.27,352.29Z"/><path class="cls-1" d="M1058.73,352.14a.88.88,0,0,1-.7-.27.94.94,0,0,1-.24-.64.93.93,0,0,1,.24-.63.88.88,0,0,1,.7-.27.91.91,0,0,1,.72.27.94.94,0,0,1,.24.63,1,1,0,0,1-.24.64A.91.91,0,0,1,1058.73,352.14Z"/><rect class="cls-2" x="78.15" y="80.71" width="24.83" height="24.83"/><path class="cls-1" d="M102.48,81.21V105H78.65V81.21h23.83m1-1H77.65V106h25.83V80.21Z"/><rect class="cls-2" x="112.59" y="80.71" width="24.83" height="24.83"/><path class="cls-1" d="M136.92,81.21V105H113.09V81.21h23.83m1-1H112.09V106h25.83V80.21Z"/><rect class="cls-2" x="147.03" y="80.71" width="24.83" height="24.83"/><path class="cls-1" d="M171.36,81.21V105H147.53V81.21h23.83m1-1H146.53V106h25.83V80.21Z"/><rect class="cls-2" x="181.47" y="80.71" width="24.83" height="24.83"/><path class="cls-1" d="M205.8,81.21V105H182V81.21H205.8m1-1H181V106H206.8V80.21Z"/><rect class="cls-2" x="215.91" y="80.71" width="24.83" height="24.83"/><path class="cls-1" d="M240.24,81.21V105H216.41V81.21h23.83m1-1H215.41V106h25.83V80.21Z"/><rect class="cls-2" x="250.35" y="80.71" width="24.83" height="24.83"/><path class="cls-1" d="M274.68,81.21V105H250.85V81.21h23.83m1-1H249.85V106h25.83V80.21Z"/><rect class="cls-2" x="78.15" y="116.51" width="24.83" height="24.83"/><path class="cls-1" d="M102.48,117v23.83H78.65V117h23.83m1-1H77.65v25.83h25.83V116Z"/><rect class="cls-2" x="112.59" y="116.51" width="24.83" height="24.83"/><path class="cls-1" d="M136.92,117v23.83H113.09V117h23.83m1-1H112.09v25.83h25.83V116Z"/><rect class="cls-2" x="147.03" y="116.51" width="24.83" height="24.83"/><path class="cls-1" d="M171.36,117v23.83H147.53V117h23.83m1-1H146.53v25.83h25.83V116Z"/><rect class="cls-2" x="181.47" y="116.51" width="24.83" height="24.83"/><path class="cls-1" d="M205.8,117v23.83H182V117H205.8m1-1H181v25.83H206.8V116Z"/><rect class="cls-2" x="215.91" y="116.51" width="24.83" height="24.83"/><path class="cls-1" d="M240.24,117v23.83H216.41V117h23.83m1-1H215.41v25.83h25.83V116Z"/><rect class="cls-2" x="250.35" y="116.51" width="24.83" height="24.83"/><path class="cls-1" d="M274.68,117v23.83H250.85V117h23.83m1-1H249.85v25.83h25.83V116Z"/><rect class="cls-2" x="78.15" y="152.31" width="24.83" height="24.83"/><path class="cls-1" d="M102.48,152.81v23.83H78.65V152.81h23.83m1-1H77.65v25.83h25.83V151.81Z"/><rect class="cls-2" x="112.59" y="152.31" width="24.83" height="24.83"/><path class="cls-1" d="M136.92,152.81v23.83H113.09V152.81h23.83m1-1H112.09v25.83h25.83V151.81Z"/><rect class="cls-2" x="147.03" y="152.31" width="24.83" height="24.83"/><path class="cls-1" d="M171.36,152.81v23.83H147.53V152.81h23.83m1-1H146.53v25.83h25.83V151.81Z"/><rect class="cls-2" x="181.47" y="152.31" width="24.83" height="24.83"/><path class="cls-1" d="M205.8,152.81v23.83H182V152.81H205.8m1-1H181v25.83H206.8V151.81Z"/><rect class="cls-2" x="215.91" y="152.31" width="24.83" height="24.83"/><path class="cls-1" d="M240.24,152.81v23.83H216.41V152.81h23.83m1-1H215.41v25.83h25.83V151.81Z"/><rect class="cls-2" x="250.35" y="152.31" width="24.83" height="24.83"/><path class="cls-1" d="M274.68,152.81v23.83H250.85V152.81h23.83m1-1H249.85v25.83h25.83V151.81Z"/><rect class="cls-2" x="78.15" y="188.11" width="24.83" height="24.83"/><path class="cls-1" d="M102.48,188.61v23.83H78.65V188.61h23.83m1-1H77.65v25.83h25.83V187.61Z"/><rect class="cls-2" x="112.59" y="188.11" width="24.83" height="24.83"/><path class="cls-1" d="M136.92,188.61v23.83H113.09V188.61h23.83m1-1H112.09v25.83h25.83V187.61Z"/><rect class="cls-2" x="147.03" y="188.11" width="24.83" height="24.83"/><path class="cls-1" d="M171.36,188.61v23.83H147.53V188.61h23.83m1-1H146.53v25.83h25.83V187.61Z"/><rect class="cls-2" x="181.47" y="188.11" width="24.83" height="24.83"/><path class="cls-1" d="M205.8,188.61v23.83H182V188.61H205.8m1-1H181v25.83H206.8V187.61Z"/><rect class="cls-2" x="215.91" y="188.11" width="24.83" height="24.83"/><path class="cls-1" d="M240.24,188.61v23.83H216.41V188.61h23.83m1-1H215.41v25.83h25.83V187.61Z"/><rect class="cls-2" x="250.35" y="188.11" width="24.83" height="24.83"/><path class="cls-1" d="M274.68,188.61v23.83H250.85V188.61h23.83m1-1H249.85v25.83h25.83V187.61Z"/><rect class="cls-2" x="78.15" y="223.91" width="24.83" height="24.83"/><path class="cls-1" d="M102.48,224.41v23.83H78.65V224.41h23.83m1-1H77.65v25.83h25.83V223.41Z"/><rect class="cls-2" x="112.59" y="223.91" width="24.83" height="24.83"/><path class="cls-1" d="M136.92,224.41v23.83H113.09V224.41h23.83m1-1H112.09v25.83h25.83V223.41Z"/><rect class="cls-2" x="147.03" y="223.91" width="24.83" height="24.83"/><path class="cls-1" d="M171.36,224.41v23.83H147.53V224.41h23.83m1-1H146.53v25.83h25.83V223.41Z"/><rect class="cls-3" x="180.97" y="223.41" width="25.83" height="25.83"/><rect class="cls-2" x="215.91" y="223.91" width="24.83" height="24.83"/><path class="cls-1" d="M240.24,224.41v23.83H216.41V224.41h23.83m1-1H215.41v25.83h25.83V223.41Z"/><rect class="cls-2" x="250.35" y="223.91" width="24.83" height="24.83"/><path class="cls-1" d="M274.68,224.41v23.83H250.85V224.41h23.83m1-1H249.85v25.83h25.83V223.41Z"/><rect class="cls-2" x="78.15" y="259.71" width="24.83" height="24.83"/><path class="cls-1" d="M102.48,260.21V284H78.65V260.21h23.83m1-1H77.65V285h25.83V259.21Z"/><rect class="cls-2" x="112.59" y="259.71" width="24.83" height="24.83"/><path class="cls-1" d="M136.92,260.21V284H113.09V260.21h23.83m1-1H112.09V285h25.83V259.21Z"/><rect class="cls-2" x="147.03" y="259.71" width="24.83" height="24.83"/><path class="cls-1" d="M171.36,260.21V284H147.53V260.21h23.83m1-1H146.53V285h25.83V259.21Z"/><rect class="cls-2" x="181.47" y="259.71" width="24.83" height="24.83"/><path class="cls-1" d="M205.8,260.21V284H182V260.21H205.8m1-1H181V285H206.8V259.21Z"/><rect class="cls-2" x="215.91" y="259.71" width="24.83" height="24.83"/><path class="cls-1" d="M240.24,260.21V284H216.41V260.21h23.83m1-1H215.41V285h25.83V259.21Z"/><rect class="cls-2" x="250.35" y="259.71" width="24.83" height="24.83"/><path class="cls-1" d="M274.68,260.21V284H250.85V260.21h23.83m1-1H249.85V285h25.83V259.21Z"/><path d="M189,243.67l-.19-1.36,4.28-4.75a6.15,6.15,0,0,0,.83-1.24,9.46,9.46,0,0,0,.58-1.29l.19-.52a2.15,2.15,0,0,0-.57-1.59,2.21,2.21,0,0,0-1.62-.57,3.71,3.71,0,0,0-2.76,1l-.48-1.24a4.7,4.7,0,0,1,3.34-1.08,3.83,3.83,0,0,1,2.69.91,3.15,3.15,0,0,1,1,2.44l-.1.31c0,.13-.14.38-.29.76s-.3.73-.46,1.07a12.12,12.12,0,0,1-.61,1.11,6.11,6.11,0,0,1-.75,1l-3.49,3.73h5.73l-.09,1.27Z"/><rect class="cls-4" x="456.06" y="80.21" width="25.83" height="25.83"/><rect class="cls-4" x="490.5" y="80.21" width="25.83" height="25.83"/><rect class="cls-4" x="524.94" y="80.21" width="25.83" height="25.83"/><rect class="cls-4" x="559.38" y="80.21" width="25.83" height="25.83"/><rect class="cls-4" x="593.82" y="80.21" width="25.83" height="25.83"/><rect class="cls-4" x="628.26" y="80.21" width="25.83" height="25.83"/><rect class="cls-4" x="456.06" y="116.01" width="25.83" height="25.83"/><rect class="cls-4" x="490.5" y="116.01" width="25.83" height="25.83"/><rect class="cls-5" x="524.94" y="116.01" width="25.83" height="25.83"/><rect class="cls-4" x="559.38" y="116.01" width="25.83" height="25.83"/><rect class="cls-4" x="593.82" y="116.01" width="25.83" height="25.83"/><rect class="cls-4" x="628.26" y="116.01" width="25.83" height="25.83"/><rect class="cls-4" x="456.06" y="151.81" width="25.83" height="25.83"/><rect class="cls-4" x="490.5" y="151.81" width="25.83" height="25.83"/><rect class="cls-4" x="524.94" y="151.81" width="25.83" height="25.83"/><rect class="cls-4" x="559.38" y="151.81" width="25.83" height="25.83"/><rect class="cls-4" x="593.82" y="151.81" width="25.83" height="25.83"/><rect class="cls-4" x="628.26" y="151.81" width="25.83" height="25.83"/><rect class="cls-4" x="456.06" y="187.61" width="25.83" height="25.83"/><rect class="cls-4" x="490.5" y="187.61" width="25.83" height="25.83"/><rect class="cls-4" x="524.94" y="187.61" width="25.83" height="25.83"/><rect class="cls-4" x="559.38" y="187.61" width="25.83" height="25.83"/><rect class="cls-4" x="593.82" y="187.61" width="25.83" height="25.83"/><rect class="cls-4" x="628.26" y="187.61" width="25.83" height="25.83"/><rect class="cls-4" x="456.06" y="223.41" width="25.83" height="25.83"/><rect class="cls-4" x="490.5" y="223.41" width="25.83" height="25.83"/><rect class="cls-4" x="524.94" y="223.41" width="25.83" height="25.83"/><rect class="cls-4" x="559.38" y="223.41" width="25.83" height="25.83"/><rect class="cls-4" x="593.82" y="223.41" width="25.83" height="25.83"/><rect class="cls-4" x="628.26" y="223.41" width="25.83" height="25.83"/><rect class="cls-4" x="456.06" y="259.21" width="25.83" height="25.83"/><rect class="cls-4" x="490.5" y="259.21" width="25.83" height="25.83"/><rect class="cls-4" x="524.94" y="259.21" width="25.83" height="25.83"/><rect class="cls-4" x="559.38" y="259.21" width="25.83" height="25.83"/><rect class="cls-4" x="593.82" y="259.21" width="25.83" height="25.83"/><rect class="cls-4" x="628.26" y="259.21" width="25.83" height="25.83"/><path class="cls-6" d="M538.09,119.65a.57.57,0,0,0-.34,1l2,2a.57.57,0,0,0,.82-.79l0,0-2-2A.57.57,0,0,0,538.09,119.65Zm4,0a.57.57,0,0,0-.51.58V122a.57.57,0,0,0,1.14,0v-1.73a.57.57,0,0,0-.56-.58Zm3.7,0a.57.57,0,0,0-.33.17l-1.71,1.71a.57.57,0,0,0,.79.83l0,0,1.71-1.71a.57.57,0,0,0-.47-1Zm-5.41,3.71a.57.57,0,0,0-.34.16L538.62,125a.57.57,0,0,0,0,.81l.08.07a5.82,5.82,0,1,1-1.83-.85.57.57,0,0,0,.41-1.07l-.11,0a7.22,7.22,0,1,0,4.28,3.28l1.12-1.12a.57.57,0,0,0,0-.81h0l-1.71-1.71A.57.57,0,0,0,540.39,123.38Zm3.43,0a.57.57,0,0,0,.05,1.14h2a.57.57,0,0,0,0-1.14h-2.08Zm-3.37,1.37.91.91-.59.58a7.12,7.12,0,0,0-.92-.89Zm3.36.61a.57.57,0,0,0-.34,1l2,2a.57.57,0,1,0,.82-.79l0,0-2-2A.57.57,0,0,0,543.81,125.37Z"/><rect class="cls-7" x="835.96" y="80.21" width="25.83" height="25.83"/><rect class="cls-8" x="870.4" y="80.21" width="25.83" height="25.83"/><rect class="cls-4" x="904.84" y="80.21" width="25.83" height="25.83"/><rect class="cls-4" x="939.28" y="80.21" width="25.83" height="25.83"/><rect class="cls-4" x="973.72" y="80.21" width="25.83" height="25.83"/><rect class="cls-4" x="1008.16" y="80.21" width="25.83" height="25.83"/><rect class="cls-8" x="835.96" y="116.01" width="25.83" height="25.83"/><rect class="cls-8" x="870.4" y="116.01" width="25.83" height="25.83"/><rect class="cls-4" x="904.84" y="116.01" width="25.83" height="25.83"/><rect class="cls-4" x="939.28" y="116.01" width="25.83" height="25.83"/><rect class="cls-8" x="973.72" y="116.01" width="25.83" height="25.83"/><rect class="cls-8" x="1008.16" y="116.01" width="25.83" height="25.83"/><rect class="cls-3" x="835.96" y="151.81" width="25.83" height="25.83"/><rect class="cls-9" x="870.4" y="151.81" width="25.83" height="25.83"/><rect class="cls-4" x="904.84" y="151.81" width="25.83" height="25.83"/><rect class="cls-4" x="939.28" y="151.81" width="25.83" height="25.83"/><rect class="cls-8" x="973.72" y="151.81" width="25.83" height="25.83"/><rect class="cls-7" x="1008.16" y="151.81" width="25.83" height="25.83"/><rect class="cls-7" x="835.96" y="187.61" width="25.83" height="25.83"/><rect class="cls-9" x="870.4" y="187.61" width="25.83" height="25.83"/><rect class="cls-4" x="904.84" y="187.61" width="25.83" height="25.83"/><rect class="cls-4" x="939.28" y="187.61" width="25.83" height="25.83"/><rect class="cls-7" x="973.72" y="187.61" width="25.83" height="25.83"/><rect class="cls-8" x="1008.16" y="187.61" width="25.83" height="25.83"/><rect class="cls-9" x="835.96" y="223.41" width="25.83" height="25.83"/><rect class="cls-4" x="870.4" y="223.41" width="25.83" height="25.83"/><rect class="cls-4" x="904.84" y="223.41" width="25.83" height="25.83"/><rect class="cls-3" x="939.28" y="223.41" width="25.83" height="25.83"/><rect class="cls-3" x="973.72" y="223.41" width="25.83" height="25.83"/><rect class="cls-8" x="1008.16" y="223.41" width="25.83" height="25.83"/><rect class="cls-4" x="835.96" y="259.21" width="25.83" height="25.83"/><rect class="cls-4" x="870.4" y="259.21" width="25.83" height="25.83"/><rect class="cls-4" x="904.84" y="259.21" width="25.83" height="25.83"/><rect class="cls-8" x="939.28" y="259.21" width="25.83" height="25.83"/><rect class="cls-7" x="973.72" y="259.21" width="25.83" height="25.83"/><rect class="cls-8" x="1008.16" y="259.21" width="25.83" height="25.83"/><path class="cls-6" d="M983.79,242.81l-.19-1.36,4.28-4.75a6.21,6.21,0,0,0,.83-1.24,9.71,9.71,0,0,0,.58-1.29l.19-.52a2.14,2.14,0,0,0-.57-1.59,2.21,2.21,0,0,0-1.62-.57,3.71,3.71,0,0,0-2.76,1l-.48-1.24a4.7,4.7,0,0,1,3.34-1.07,3.83,3.83,0,0,1,2.69.91,3.15,3.15,0,0,1,1,2.44c0,.08-.05.18-.1.31s-.14.38-.29.76-.3.73-.46,1.07a12.46,12.46,0,0,1-.61,1.11,6.08,6.08,0,0,1-.75,1l-3.49,3.73h5.73l-.09,1.27Z"/><path class="cls-6" d="M844.41,171.27l-.19-1.36,4.28-4.75a6.15,6.15,0,0,0,.83-1.24,9.71,9.71,0,0,0,.58-1.29l.19-.52a2.14,2.14,0,0,0-.57-1.59,2.21,2.21,0,0,0-1.62-.57,3.71,3.71,0,0,0-2.76,1l-.48-1.24a4.7,4.7,0,0,1,3.34-1.08,3.83,3.83,0,0,1,2.69.91,3.15,3.15,0,0,1,1,2.44l-.1.31c0,.13-.14.38-.29.76s-.3.73-.46,1.07a12.33,12.33,0,0,1-.61,1.11,6.16,6.16,0,0,1-.75,1L846,170h5.73l-.09,1.27Z"/><path class="cls-6" d="M847.09,245a6.19,6.19,0,0,1-2-.29,3.38,3.38,0,0,1-1.26-.67l.46-1.22a4.35,4.35,0,0,0,2.78.92,3,3,0,0,0,2-.62,2.13,2.13,0,0,0,.73-1.72,2.75,2.75,0,0,0-.19-1.05,2,2,0,0,0-.5-.73,2.33,2.33,0,0,0-.79-.45,5.09,5.09,0,0,0-1-.24,10.8,10.8,0,0,0-1.18-.09h-.5V237.6h.41a9.73,9.73,0,0,0,1-.06,4.88,4.88,0,0,0,.89-.19,2.25,2.25,0,0,0,.73-.37,1.7,1.7,0,0,0,.47-.62,2.15,2.15,0,0,0,.18-.92q0-2-2.27-2a4.85,4.85,0,0,0-1.54.24,4,4,0,0,0-1.23.65l-.46-1.21a5.79,5.79,0,0,1,3.55-.93,4.31,4.31,0,0,1,1.73.34,3.12,3.12,0,0,1,1.31,1,2.75,2.75,0,0,1,.51,1.66,3,3,0,0,1-.57,1.9,3.12,3.12,0,0,1-1.6,1.07,3,3,0,0,1,1.82,1.08,3.32,3.32,0,0,1,.66,2.12,3.23,3.23,0,0,1-1.17,2.61A4.5,4.5,0,0,1,847.09,245Z"/><path class="cls-6" d="M881.53,208.2a6.19,6.19,0,0,1-2-.29,3.39,3.39,0,0,1-1.26-.67l.46-1.22a4.35,4.35,0,0,0,2.78.92,3,3,0,0,0,2-.62,2.13,2.13,0,0,0,.73-1.72,2.75,2.75,0,0,0-.19-1.05,2,2,0,0,0-.5-.73,2.32,2.32,0,0,0-.79-.45,5.09,5.09,0,0,0-1-.24,10.78,10.78,0,0,0-1.18-.09h-.5V200.8h.41a9.47,9.47,0,0,0,1-.06,4.8,4.8,0,0,0,.89-.19,2.25,2.25,0,0,0,.73-.37,1.7,1.7,0,0,0,.47-.62,2.16,2.16,0,0,0,.18-.92q0-2-2.27-2a4.82,4.82,0,0,0-1.54.24,4,4,0,0,0-1.23.64l-.46-1.21a5.79,5.79,0,0,1,3.55-.94,4.31,4.31,0,0,1,1.73.34,3.12,3.12,0,0,1,1.31,1.05,2.74,2.74,0,0,1,.51,1.66,3,3,0,0,1-.57,1.9,3.12,3.12,0,0,1-1.6,1.07A3,3,0,0,1,885,202.5a3.32,3.32,0,0,1,.66,2.12,3.22,3.22,0,0,1-1.17,2.61A4.5,4.5,0,0,1,881.53,208.2Z"/><path class="cls-6" d="M882.85,173a6.19,6.19,0,0,1-2-.29,3.38,3.38,0,0,1-1.26-.67l.46-1.22a4.35,4.35,0,0,0,2.78.92,3,3,0,0,0,2-.62,2.13,2.13,0,0,0,.73-1.72,2.75,2.75,0,0,0-.19-1.05,2,2,0,0,0-.5-.73,2.33,2.33,0,0,0-.79-.45,5.09,5.09,0,0,0-1-.24,10.8,10.8,0,0,0-1.18-.09h-.5v-1.23h.41a9.73,9.73,0,0,0,1-.06,4.88,4.88,0,0,0,.89-.19,2.25,2.25,0,0,0,.73-.37,1.7,1.7,0,0,0,.47-.62,2.15,2.15,0,0,0,.18-.92q0-2-2.27-2a4.85,4.85,0,0,0-1.54.24,4,4,0,0,0-1.23.65l-.46-1.21a5.79,5.79,0,0,1,3.55-.93,4.31,4.31,0,0,1,1.73.34,3.12,3.12,0,0,1,1.31,1,2.75,2.75,0,0,1,.51,1.66,3,3,0,0,1-.57,1.9,3.12,3.12,0,0,1-1.6,1.07,3,3,0,0,1,1.82,1.08,3.32,3.32,0,0,1,.66,2.12,3.23,3.23,0,0,1-1.17,2.61A4.5,4.5,0,0,1,882.85,173Z"/><path class="cls-6" d="M1020.44,194.58h1.32V207h-1.46V196.11a8.44,8.44,0,0,1-2,.94v-1.38l.54-.23.61-.27.51-.26A5.09,5.09,0,0,0,1020.44,194.58Z"/><path class="cls-6" d="M1020.44,230h1.32V242.4h-1.46V231.55a8.44,8.44,0,0,1-2,.93v-1.38l.54-.23.61-.26.51-.26A5.09,5.09,0,0,0,1020.44,230Z"/><path class="cls-6" d="M1021,266.13h1.32V278.5h-1.46V267.66a8.44,8.44,0,0,1-2,.93v-1.38l.54-.23.61-.26.51-.26A5.09,5.09,0,0,0,1021,266.13Z"/><path class="cls-6" d="M952.1,265.17h1.32v12.37h-1.46V266.7a8.44,8.44,0,0,1-2,.93v-1.38l.54-.23.61-.26.51-.26A5.09,5.09,0,0,0,952.1,265.17Z"/><path class="cls-6" d="M881.68,88.07H883v12.37h-1.46V89.6a8.44,8.44,0,0,1-2,.93V89.15l.54-.23.61-.26.51-.26A5.09,5.09,0,0,0,881.68,88.07Z"/><path class="cls-6" d="M948.46,243.31l-.19-1.36,4.28-4.75a6.15,6.15,0,0,0,.83-1.24,9.71,9.71,0,0,0,.58-1.29l.19-.52a2.14,2.14,0,0,0-.57-1.59A2.21,2.21,0,0,0,952,232a3.71,3.71,0,0,0-2.76,1l-.48-1.24a4.7,4.7,0,0,1,3.34-1.08,3.83,3.83,0,0,1,2.69.91,3.15,3.15,0,0,1,1,2.44l-.1.31c0,.13-.14.38-.29.76s-.3.73-.46,1.07a12.33,12.33,0,0,1-.61,1.11,6.16,6.16,0,0,1-.75,1L950.06,242h5.73l-.09,1.27Z"/><path class="cls-6" d="M985.27,125.55h1.32v12.37h-1.46V127.08a8.44,8.44,0,0,1-2,.93v-1.38l.54-.23.61-.26.51-.26A5.09,5.09,0,0,0,985.27,125.55Z"/><path class="cls-6" d="M986.45,159.29h1.32v12.37H986.3V160.82a8.44,8.44,0,0,1-2,.93v-1.38l.54-.23.61-.26.51-.26A5.09,5.09,0,0,0,986.45,159.29Z"/><path class="cls-6" d="M1022.44,124.6h1.32V137h-1.46V126.13a8.44,8.44,0,0,1-2,.93v-1.38l.54-.23.61-.26.51-.26A5.09,5.09,0,0,0,1022.44,124.6Z"/><path class="cls-6" d="M857.46,91.77a.78.78,0,0,0,.44-.68.79.79,0,0,0-.42-.7l-10.8-5.43V84a.77.77,0,0,0-1.54,0v17.49h-1.43a.77.77,0,0,0,0,1.54h4.4a.78.78,0,0,0,.77-.77.77.77,0,0,0-.77-.77h-1.43V96.69ZM855.35,91l-8.67,4V86.68Z"/><path class="cls-6" d="M1028.11,163.76a.78.78,0,0,0,.44-.68.79.79,0,0,0-.42-.7l-10.8-5.43V156a.77.77,0,0,0-1.54,0v17.49h-1.43a.77.77,0,1,0,0,1.54h4.4a.78.78,0,0,0,.77-.77.77.77,0,0,0-.77-.77h-1.43v-4.79ZM1026,163l-8.67,4v-8.31Z"/><path class="cls-6" d="M993.58,199.77a.78.78,0,0,0,.44-.68.79.79,0,0,0-.42-.7L982.8,193V192a.77.77,0,1,0-1.54,0v17.49h-1.43a.77.77,0,1,0,0,1.54h4.4a.78.78,0,0,0,.77-.77.77.77,0,0,0-.77-.77H982.8V204.7Zm-2.11-.73-8.67,4v-8.31Z"/><path class="cls-6" d="M992.89,270.76a.78.78,0,0,0,.44-.68.79.79,0,0,0-.42-.7l-10.8-5.43V263a.77.77,0,1,0-1.54,0v17.49h-1.43a.77.77,0,1,0,0,1.54h4.4a.78.78,0,0,0,.77-.77.77.77,0,0,0-.77-.77h-1.43v-4.79Zm-2.11-.73-8.67,4v-8.31Z"/><path class="cls-6" d="M855.91,199.16a.78.78,0,0,0,.44-.68.79.79,0,0,0-.42-.7l-10.8-5.43v-.95a.77.77,0,0,0-1.54,0v17.49h-1.43a.77.77,0,1,0,0,1.54h4.4a.78.78,0,0,0,.77-.77.77.77,0,0,0-.77-.77h-1.43v-4.79Zm-2.11-.73-8.67,4v-8.31Z"/><path class="cls-6" d="M848.78,122.48h1.32v12.37h-1.46V124a8.44,8.44,0,0,1-2,.93v-1.38l.54-.23.61-.26.51-.26A5.09,5.09,0,0,0,848.78,122.48Z"/><path class="cls-6" d="M883.22,122.48h1.32v12.37h-1.46V124a8.44,8.44,0,0,1-2,.93v-1.38l.54-.23.61-.26.51-.26A5.09,5.09,0,0,0,883.22,122.48Z"/></g></g></svg>